<svg xmlns="http://www.w3.org/2000/svg" width="74.616" height="85.976" viewBox="0 0 74.616 85.976">
  <g id="Groupe_51" data-name="Groupe 51" transform="translate(0.884 1.441)">
    <path id="Tracé_571" data-name="Tracé 571" d="M-2488.206-4527.63v7.972h-42.711a12.662,12.662,0,0,0,.641-3.986,12.661,12.661,0,0,0-.641-3.986Z" transform="translate(2560.688 4589.536)" fill="none" stroke="#fff" stroke-miterlimit="10" stroke-width="2.5"/>
    <rect id="Rectangle_224" data-name="Rectangle 224" width="62.98" height="7.973" transform="translate(9.502 18.062)" fill="none" stroke="#fff" stroke-miterlimit="10" stroke-width="2.5"/>
    <path id="Tracé_572" data-name="Tracé 572" d="M-2573.571-4651.282v28.366a12.574,12.574,0,0,0-5.3-1.161,12.724,12.724,0,0,0-2.677.284v-27.489Z" transform="translate(2596.628 4677.317)" fill="none" stroke="#fff" stroke-miterlimit="10" stroke-width="2.5"/>
    <rect id="Rectangle_225" data-name="Rectangle 225" width="35.87" height="7.973" transform="translate(66.901 26.036) rotate(90)" fill="none" stroke="#fff" stroke-miterlimit="10" stroke-width="2.5"/>
    <path id="Tracé_573" data-name="Tracé 573" d="M-2600.784-4722.964l31.49-18.062,31.49,18.062" transform="translate(2610.286 4741.026)" fill="none" stroke="#fff" stroke-miterlimit="10" stroke-width="2.5"/>
    <path id="Tracé_574" data-name="Tracé 574" d="M-2507.547-4619.332v7.972h-6.594v6.594h-7.974v-6.594h-6.594v-7.972h6.594v-6.594h7.974v6.594Z" transform="translate(2559.12 4659.316)" fill="none" stroke="#fff" stroke-miterlimit="10" stroke-width="2.5"/>
    <path id="Tracé_575" data-name="Tracé 575" d="M-2590.628-4544.852a12.682,12.682,0,0,1-.64,3.987,12.657,12.657,0,0,1-12.011,8.666,12.618,12.618,0,0,1-8.947-3.7,12.621,12.621,0,0,1-3.706-8.948,12.658,12.658,0,0,1,9.976-12.369,12.724,12.724,0,0,1,2.677-.283,12.588,12.588,0,0,1,5.3,1.16,12.684,12.684,0,0,1,6.714,7.506A12.672,12.672,0,0,1-2590.628-4544.852Z" transform="translate(2621.04 4610.744)" fill="none" stroke="#fff" stroke-miterlimit="10" stroke-width="2.5"/>
    <line id="Ligne_43" data-name="Ligne 43" x1="8.813" y2="8.812" transform="translate(0 74.84)" fill="none" stroke="#fff" stroke-miterlimit="10" stroke-width="2.5"/>
  </g>
</svg>
