<svg xmlns="http://www.w3.org/2000/svg" width="65.51" height="75.93" viewBox="0 0 65.51 75.93">
  <g id="Groupe_62" data-name="Groupe 62" transform="translate(1.25 1.25)">
    <rect id="Rectangle_234" data-name="Rectangle 234" width="13.244" height="22.475" transform="translate(0 0)" fill="none" stroke="#fff" stroke-miterlimit="10" stroke-width="2.5"/>
    <line id="Ligne_54" data-name="Ligne 54" y2="8.6" transform="translate(4.415 0)" fill="none" stroke="#fff" stroke-miterlimit="10" stroke-width="2.5"/>
    <line id="Ligne_55" data-name="Ligne 55" y2="8.6" transform="translate(8.829 0)" fill="none" stroke="#fff" stroke-miterlimit="10" stroke-width="2.5"/>
    <path id="Tracé_589" data-name="Tracé 589" d="M-4499.029-3560.951v-25.733" transform="translate(4530.533 3635.632)" fill="none" stroke="#fff" stroke-miterlimit="10" stroke-width="2.5"/>
    <rect id="Rectangle_235" data-name="Rectangle 235" width="13.244" height="22.475" transform="translate(24.883 0)" fill="none" stroke="#fff" stroke-miterlimit="10" stroke-width="2.5"/>
    <line id="Ligne_56" data-name="Ligne 56" y2="8.6" transform="translate(29.298 0)" fill="none" stroke="#fff" stroke-miterlimit="10" stroke-width="2.5"/>
    <line id="Ligne_57" data-name="Ligne 57" y2="8.6" transform="translate(33.712 0)" fill="none" stroke="#fff" stroke-miterlimit="10" stroke-width="2.5"/>
    <rect id="Rectangle_236" data-name="Rectangle 236" width="13.244" height="22.475" transform="translate(49.766 0)" fill="none" stroke="#fff" stroke-miterlimit="10" stroke-width="2.5"/>
    <line id="Ligne_58" data-name="Ligne 58" y2="8.6" transform="translate(54.181 0)" fill="none" stroke="#fff" stroke-miterlimit="10" stroke-width="2.5"/>
    <line id="Ligne_59" data-name="Ligne 59" y2="8.6" transform="translate(58.596 0)" fill="none" stroke="#fff" stroke-miterlimit="10" stroke-width="2.5"/>
    <path id="Tracé_590" data-name="Tracé 590" d="M-4525.675-3615.777v-14.038l-24.493-11.513-.391-.183-12.855-6.04-12.025-5.653v-14.779" transform="translate(4582.063 3690.457)" fill="none" stroke="#fff" stroke-miterlimit="10" stroke-width="2.5"/>
    <path id="Tracé_591" data-name="Tracé 591" d="M-4575.439-3615.777V-3641.9l12.025-5.649,12.855-6.043v-14.388" transform="translate(4582.063 3690.457)" fill="none" stroke="#fff" stroke-miterlimit="10" stroke-width="2.5"/>
    <path id="Tracé_592" data-name="Tracé 592" d="M-4499.029-3641.142l.391-.186,24.493-11.511v-15.143" transform="translate(4530.533 3690.457)" fill="none" stroke="#fff" stroke-miterlimit="10" stroke-width="2.5"/>
    <line id="Ligne_60" data-name="Ligne 60" x2="13.244" transform="translate(0 8.6)" fill="none" stroke="#fff" stroke-miterlimit="10" stroke-width="2.5"/>
    <line id="Ligne_61" data-name="Ligne 61" x2="13.244" transform="translate(24.883 8.6)" fill="none" stroke="#fff" stroke-miterlimit="10" stroke-width="2.5"/>
    <line id="Ligne_62" data-name="Ligne 62" x2="13.402" transform="translate(49.766 8.6)" fill="none" stroke="#fff" stroke-miterlimit="10" stroke-width="2.5"/>
  </g>
</svg>
