<svg xmlns="http://www.w3.org/2000/svg" width="76.141" height="76.455" viewBox="0 0 76.141 76.455">
  <g id="Groupe_52" data-name="Groupe 52" transform="translate(1.25 1.25)">
    <path id="Tracé_576" data-name="Tracé 576" d="M-4937.322-4073.384v15.361h-12.7v12.7h-15.364v-12.7h-12.7v-15.361h12.7v-12.7h15.364v12.7Z" transform="translate(4978.095 4119.273)" fill="none" stroke="#fff" stroke-miterlimit="10" stroke-width="2.5"/>
    <path id="Tracé_577" data-name="Tracé 577" d="M-4874.965-4160.992l4.721,2.8a29.216,29.216,0,0,1-2.532,7.8l-5.468-.508a24.344,24.344,0,0,1-2.714,3.732l2.17,5.039a29.527,29.527,0,0,1-6.635,4.827l-4.119-3.62a24.18,24.18,0,0,1-4.4,1.426l-1.207,5.352a29.881,29.881,0,0,1-4.1.283,29.691,29.691,0,0,1-3.738-.234v-12.766h-12.705v-12.7h-10.249l2.413-1.432q-.109-1.14-.109-2.307c0-.778.037-1.55.109-2.31l-4.723-2.8a29.218,29.218,0,0,1,2.532-7.806l5.468.511a24.346,24.346,0,0,1,2.714-3.735l-2.17-5.037a29.448,29.448,0,0,1,6.635-4.83l4.118,3.623a24.491,24.491,0,0,1,4.4-1.429l1.2-5.349a29.469,29.469,0,0,1,4.1-.286,29.425,29.425,0,0,1,4.1.286l1.207,5.349a24.456,24.456,0,0,1,4.4,1.429l4.119-3.623a29.448,29.448,0,0,1,6.635,4.83l-2.17,5.037a24.346,24.346,0,0,1,2.714,3.735l5.468-.511a29.236,29.236,0,0,1,2.532,7.806l-4.721,2.8q.105,1.14.106,2.307T-4874.965-4160.992Z" transform="translate(4943.755 4192.744)" fill="none" stroke="#fff" stroke-miterlimit="10" stroke-width="2.5"/>
    <circle id="Ellipse_11" data-name="Ellipse 11" cx="10.319" cy="10.319" r="10.319" transform="translate(34.192 19.126)" fill="none" stroke="#fff" stroke-miterlimit="10" stroke-width="2.5"/>
  </g>
</svg>
