<svg xmlns="http://www.w3.org/2000/svg" width="88.967" height="83.75" viewBox="0 0 88.967 83.75">
  <g id="Groupe_61" data-name="Groupe 61" transform="translate(0 1.25)">
    <g id="Groupe_59" data-name="Groupe 59" transform="translate(22.847)">
      <path id="Tracé_583" data-name="Tracé 583" d="M-4916.044-3709.021h37.842V-3760h-64.871v41.272h28.483l-.435,2.911-1.016,6.769" transform="translate(4943.073 3760)" fill="none" stroke="#fff" stroke-miterlimit="10" stroke-width="2.5"/>
      <path id="Tracé_584" data-name="Tracé 584" d="M-4857.4-3590.013l-1.921,12.822h17.486v-12.849H-4857.4" transform="translate(4884.43 3640.992)" fill="none" stroke="#fff" stroke-miterlimit="10" stroke-width="2.5"/>
      <path id="Tracé_585" data-name="Tracé 585" d="M-4869.118-3737.33v37.386h-30.026l.434-2.911h-21.683v-34.476Z" transform="translate(4927.192 3744.127)" fill="none" stroke="#fff" stroke-miterlimit="10" stroke-width="2.5"/>
      <path id="Tracé_586" data-name="Tracé 586" d="M-4836.116-3547.18h-23.207" transform="translate(4884.43 3610.981)" fill="none" stroke="#fff" stroke-miterlimit="10" stroke-width="2.5"/>
    </g>
    <g id="Groupe_60" data-name="Groupe 60" transform="translate(0 32.437)">
      <ellipse id="Ellipse_12" data-name="Ellipse 12" cx="4.849" cy="4.849" rx="4.849" ry="4.849" transform="translate(13.423 39.116)" fill="none" stroke="#fff" stroke-miterlimit="10" stroke-width="2.5"/>
      <ellipse id="Ellipse_13" data-name="Ellipse 13" cx="4.849" cy="4.849" rx="4.849" ry="4.849" transform="translate(38.516 39.116)" fill="none" stroke="#fff" stroke-miterlimit="10" stroke-width="2.5"/>
      <path id="Tracé_587" data-name="Tracé 587" d="M-4946.676-3612.65l1.017-6.769.434-2.911h-41.6l3.777,25.209H-4949l.4-2.68,1.921-12.822" transform="translate(4996.554 3631.165)" fill="none" stroke="#fff" stroke-miterlimit="10" stroke-width="2.5"/>
      <path id="Tracé_588" data-name="Tracé 588" d="M-5019.283-3651.8h8.409l1.322,8.835" transform="translate(5019.283 3651.8)" fill="none" stroke="#fff" stroke-miterlimit="10" stroke-width="2.5"/>
      <line id="Ligne_53" data-name="Ligne 53" x1="0.003" y2="0.027" transform="translate(49.876 18.515)" fill="none" stroke="#fff" stroke-miterlimit="10" stroke-width="2.5"/>
    </g>
  </g>
</svg>
