<svg xmlns="http://www.w3.org/2000/svg" width="80.594" height="74.243" viewBox="0 0 80.594 74.243">
  <g id="Groupe_44" data-name="Groupe 44" transform="translate(1.25 1.25)">
    <path id="Tracé_557" data-name="Tracé 557" d="M-4231.5-4714.469a34.32,34.32,0,0,1,31.038-19.651,34.325,34.325,0,0,1,31.137,19.859" transform="translate(4239.461 4734.12)" fill="none" stroke="#fff" stroke-miterlimit="10" stroke-width="2.5"/>
    <path id="Tracé_558" data-name="Tracé 558" d="M-4103.78-4547.843a34.36,34.36,0,0,0,25.36-19.857" transform="translate(4148.792 4615.979)" fill="none" stroke="#fff" stroke-miterlimit="10" stroke-width="2.5"/>
    <path id="Rectangle_216" data-name="Rectangle 216" d="M7.96,0h0a0,0,0,0,1,0,0V28.661a0,0,0,0,1,0,0h0A7.96,7.96,0,0,1,0,20.7V7.96A7.96,7.96,0,0,1,7.96,0Z" transform="translate(0 19.619)" fill="none" stroke="#fff" stroke-miterlimit="10" stroke-width="2.5"/>
    <path id="Rectangle_217" data-name="Rectangle 217" d="M0,0H0A7.96,7.96,0,0,1,7.96,7.96V20.7A7.96,7.96,0,0,1,0,28.661H0a0,0,0,0,1,0,0V0A0,0,0,0,1,0,0Z" transform="translate(70.134 19.619)" fill="none" stroke="#fff" stroke-miterlimit="10" stroke-width="2.5"/>
    <rect id="Rectangle_218" data-name="Rectangle 218" width="6.164" height="13.07" rx="3.082" transform="translate(31.99 71.743) rotate(-90)" fill="none" stroke="#fff" stroke-miterlimit="10" stroke-width="2.5"/>
  </g>
</svg>
