<svg xmlns="http://www.w3.org/2000/svg" xmlns:xlink="http://www.w3.org/1999/xlink" width="83.382" height="59.453" viewBox="0 0 83.382 59.453">
  <defs>
    <linearGradient id="linear-gradient" x1="0.191" y1="0.854" x2="0.822" y2="-0.031" gradientUnits="objectBoundingBox">
      <stop offset="0" stop-color="#05668d"/>
      <stop offset="0.483" stop-color="#00a896"/>
      <stop offset="1" stop-color="#f0f3bd"/>
    </linearGradient>
  </defs>
  <path id="Tracé_20" data-name="Tracé 20" d="M-4903.789-6132.378l-14.671-26.488-1.7,1.026c-1.907,1.153-8.057.254-13.481-.539-3.275-.478-6.66-.973-9.919-1.21a20.467,20.467,0,0,0-10.95,1.817,9.847,9.847,0,0,0-3.445,2.726l-.51.843c-2.066-.03-7.073-.421-10.8-3.281l-1.661-1.274-16.248,25.783,6.11,6.11a6.154,6.154,0,0,0-1.763,4.319,6.16,6.16,0,0,0,1.809,4.385,6.185,6.185,0,0,0,4.39,1.819c.153,0,.306-.011.457-.022a6.614,6.614,0,0,0,1.923,4.2,6.649,6.649,0,0,0,4.724,1.957c.1,0,.194-.01.292-.014a5.994,5.994,0,0,0,1.747,3.889,6.033,6.033,0,0,0,4.283,1.773,6.058,6.058,0,0,0,2.07-.369,6.352,6.352,0,0,0,1.637,2.83,6.39,6.39,0,0,0,4.538,1.879,6.389,6.389,0,0,0,4.527-1.867l2.1-2.1c1.946,1.02,5.64,2.67,9.175,2.67a9.279,9.279,0,0,0,2.618-.353,6.987,6.987,0,0,0,3.736-2.62c2.338.187,5.5-.306,6.958-2.979a6.753,6.753,0,0,0,.856-2.787c2.729.379,4.9-.511,6.138-2.52a7.416,7.416,0,0,0,1.179-3.7,6.449,6.449,0,0,0,5.328-1.863c2.257-2.256,1.7-5.033.529-7.146Zm-74.525,11.521a2.371,2.371,0,0,1-.694-1.684,2.366,2.366,0,0,1,.7-1.685l2.453-2.448a2.364,2.364,0,0,1,1.681-.7h0a2.362,2.362,0,0,1,1.684.7,2.357,2.357,0,0,1,.7,1.684,2.361,2.361,0,0,1-.538,1.487l-1.906,1.9c-.114.114-.218.235-.324.355l-.385.385A2.387,2.387,0,0,1-4978.314-6120.857Zm6.771,6a2.828,2.828,0,0,1-.833-2.018,2.833,2.833,0,0,1,.609-1.755l1.974-1.968c.122-.122.235-.25.346-.38l2.123-2.122a2.837,2.837,0,0,1,2.015-.833h0a2.835,2.835,0,0,1,2.017.838,2.837,2.837,0,0,1,.833,2.019,2.84,2.84,0,0,1-.836,2.016l-.917.916-3.3,3.293A2.857,2.857,0,0,1-4971.543-6114.856Zm6.762,5.83a2.212,2.212,0,0,1-.65-1.578,2.218,2.218,0,0,1,.656-1.579l3.261-3.256.918-.918h0l1.147-1.146a2.221,2.221,0,0,1,1.577-.651h0a2.213,2.213,0,0,1,1.578.656,2.212,2.212,0,0,1,.651,1.579,2.213,2.213,0,0,1-.657,1.579l-2.683,2.68-.5.5-.008.009-2.134,2.132A2.235,2.235,0,0,1-4964.781-6109.026Zm7.99,4.234a2.6,2.6,0,0,1,0-3.663l.5-.5,2.082-2.077a2.577,2.577,0,0,1,1.832-.756h0a2.572,2.572,0,0,1,1.833.762,2.574,2.574,0,0,1,.757,1.834,2.58,2.58,0,0,1-.762,1.833l-2.574,2.568A2.6,2.6,0,0,1-4956.792-6104.792Zm41.752-16.237c-1.636,1.636-4.275.21-4.521.07l-14.911-9.795a1.908,1.908,0,0,0-2.643.546,1.909,1.909,0,0,0,.547,2.643l14.737,9.682c.228.314.8,1.379-.27,3.116-1.03,1.673-4.387.174-4.8-.019l-12.747-7.908a1.908,1.908,0,0,0-2.627.616,1.907,1.907,0,0,0,.615,2.627l12.559,7.792a2.165,2.165,0,0,1-.095,2.371c-.638,1.167-2.879,1.071-3.862.93l-10.886-7.257a1.908,1.908,0,0,0-2.646.528,1.908,1.908,0,0,0,.529,2.646l9.544,6.363a3.269,3.269,0,0,1-1.095.552c-2.52.743-6.313-.716-8.62-1.871a6.445,6.445,0,0,0,.257-1.788,6.367,6.367,0,0,0-1.872-4.534,6.356,6.356,0,0,0-4-1.856c.006-.115.017-.229.017-.344a6.011,6.011,0,0,0-1.766-4.279,6.013,6.013,0,0,0-4.276-1.776,6.343,6.343,0,0,0-.83.068,6.607,6.607,0,0,0-1.891-3.884,6.627,6.627,0,0,0-4.714-1.96h-.01a6.634,6.634,0,0,0-3.014.723,6.156,6.156,0,0,0-1.46-2.338,6.161,6.161,0,0,0-4.381-1.822,6.1,6.1,0,0,0-4.188,1.632l-3.964-3.964,12.462-19.775a22.732,22.732,0,0,0,9.155,2.789l-6.834,11.292,1.629.987c4.4,2.667,10.906,3.788,16.963-6.02.84-1.36,3.16-.974,3.92-.8l28.858,20.039C-4915.7-6124.5-4913.821-6122.248-4915.04-6121.029Zm.736-7.338-29.068-20.184-.282-.087a10.077,10.077,0,0,0-2.884-.423,6.315,6.315,0,0,0-5.65,2.811c-3.205,5.187-6.354,6.98-10.021,5.609l7.39-12.216a7.152,7.152,0,0,1,2.311-1.646,16.983,16.983,0,0,1,8.675-1.279c3.12.228,6.437.712,9.643,1.181,5.959.871,10.886,1.591,14.156.771l11.4,20.584Z" transform="translate(4987.171 6159.669)" fill="url(#linear-gradient)"/>
</svg>
