<svg id="Groupe_16" data-name="Groupe 16" xmlns="http://www.w3.org/2000/svg" xmlns:xlink="http://www.w3.org/1999/xlink" width="85.189" height="59.678" viewBox="0 0 85.189 59.678">
  <defs>
    <linearGradient id="linear-gradient" x1="0.182" y1="0.729" x2="1.709" y2="-0.221" gradientUnits="objectBoundingBox">
      <stop offset="0" stop-color="#05668d"/>
      <stop offset="0.483" stop-color="#00a896"/>
      <stop offset="1" stop-color="#f0f3bd"/>
    </linearGradient>
    <linearGradient id="linear-gradient-2" x1="-0.243" y1="0.962" x2="1.121" y2="0.138" gradientUnits="objectBoundingBox">
      <stop offset="0" stop-color="#05668d"/>
      <stop offset="0.512" stop-color="#00a896"/>
      <stop offset="1" stop-color="#f0f3bd"/>
    </linearGradient>
  </defs>
  <path id="Tracé_18" data-name="Tracé 18" d="M-4733.271-6588.809a7.235,7.235,0,0,0-6.066-2.347,7.241,7.241,0,0,0-5.3-3.393A7.237,7.237,0,0,0-4749.1-6599a7.234,7.234,0,0,0-3.4-5.3,7.234,7.234,0,0,0-2.192-5.9,7.231,7.231,0,0,0-.878-6.234,7.235,7.235,0,0,0,.473-6.279,7.242,7.242,0,0,0,1.646-6.786,7.286,7.286,0,0,0-1.916-.2c.005-.012.013-.023.019-.037a7.245,7.245,0,0,0-.469-7.17,7.246,7.246,0,0,0-5.934,4.055,7.239,7.239,0,0,0-.622,1.923,7.3,7.3,0,0,0-2.881-1.436,7.244,7.244,0,0,0-1.587,7.008,7.239,7.239,0,0,0,.89,1.886,7.379,7.379,0,0,0-1.6-.223,7.247,7.247,0,0,0-.052,7.187,7.214,7.214,0,0,0,1.272,1.651,7.27,7.27,0,0,0-1.615.126,7.242,7.242,0,0,0,1.485,7.03,7.229,7.229,0,0,0,1.6,1.343,7.213,7.213,0,0,0-1.551.469,7.242,7.242,0,0,0,2.954,6.55,7.22,7.22,0,0,0,1.846.97,7.315,7.315,0,0,0-1.415.789,7.244,7.244,0,0,0,4.286,5.768,7.227,7.227,0,0,0,2.011.553,7.259,7.259,0,0,0-1.213,1.073,7.245,7.245,0,0,0,5.419,4.719,7.231,7.231,0,0,0,2.083.11,7.3,7.3,0,0,0-.957,1.307,7.244,7.244,0,0,0,6.3,3.452,7.221,7.221,0,0,0,2.058-.336,7.312,7.312,0,0,0-.654,1.481,7.245,7.245,0,0,0,6.9,2.025,7.241,7.241,0,0,0,5.059-4.368l.027,0c.027-.09.05-.18.074-.27s.063-.174.091-.263l-.021-.021A7.234,7.234,0,0,0-4733.271-6588.809Zm-28.235-23.993.058,0,.014-.026c.051,0,.1-.006.151-.011-.027.062-.05.125-.075.187C-4761.408-6612.7-4761.456-6612.752-4761.507-6612.8Zm-.109-7.616c.007-.007.012-.015.019-.022l.151.022c-.039.054-.076.111-.113.166-.038-.06-.073-.122-.112-.181C-4761.653-6620.429-4761.635-6620.422-4761.616-6620.418Zm4.941,9.762a3.117,3.117,0,0,1-2.339,2.017,3.113,3.113,0,0,1-.545-3.04,3.114,3.114,0,0,1,2.339-2.017A3.116,3.116,0,0,1-4756.675-6610.656Zm-.736-6.648a3.112,3.112,0,0,1-2.715,1.469,3.112,3.112,0,0,1,.118-3.085,3.113,3.113,0,0,1,2.715-1.469A3.115,3.115,0,0,1-4757.411-6617.3Zm.7-6.651a3.113,3.113,0,0,1-2.967.855,3.114,3.114,0,0,1,.774-2.988,3.11,3.11,0,0,1,2.967-.855A3.112,3.112,0,0,1-4756.708-6623.956Zm-2.95,18.563a.251.251,0,0,0,.008-.027l.146-.043c-.013.064-.022.132-.034.2-.059-.039-.117-.08-.177-.117Zm3.334,6.853c0-.009,0-.019,0-.028l.132-.073c0,.065.007.133.011.2-.066-.025-.132-.053-.2-.076C-4756.361-6598.526-4756.342-6598.531-4756.324-6598.539Zm4.717,5.954.114-.1c.015.066.035.13.053.195-.07-.011-.141-.024-.211-.033.016-.012.033-.021.048-.032C-4751.6-6592.566-4751.606-6592.576-4751.607-6592.585Zm5.884,4.836c.031-.04.061-.081.091-.122.028.059.062.118.092.177-.072,0-.143.007-.213.013.013-.015.027-.028.04-.042C-4745.716-6587.731-4745.72-6587.74-4745.723-6587.749Zm6.782,3.468c.021-.047.042-.093.062-.14.042.053.086.1.129.155-.069.019-.138.037-.206.058.01-.017.021-.033.03-.049Zm1.231-4.125a3.113,3.113,0,0,1,2.935.96,3.113,3.113,0,0,1,.667,3.015,3.116,3.116,0,0,1-2.934-.961A3.113,3.113,0,0,1-4737.71-6588.406Zm-5.93-3.109a3.115,3.115,0,0,1,2.662,1.565,3.113,3.113,0,0,1,.007,3.088,3.117,3.117,0,0,1-2.662-1.565A3.115,3.115,0,0,1-4743.64-6591.515Zm-2.862-2.206a3.113,3.113,0,0,1-.653,3.018,3.113,3.113,0,0,1-2.266-2.1,3.114,3.114,0,0,1,.653-3.019A3.115,3.115,0,0,1-4746.5-6593.721Zm-4.59-4.865a3.113,3.113,0,0,1-1.284,2.809,3.113,3.113,0,0,1-1.764-2.535,3.111,3.111,0,0,1,1.283-2.808A3.112,3.112,0,0,1-4751.092-6598.585Zm-3.444-5.733a3.114,3.114,0,0,1-1.854,2.469,3.111,3.111,0,0,1-1.182-2.853,3.114,3.114,0,0,1,1.853-2.47A3.116,3.116,0,0,1-4754.536-6604.318Zm-5.388-27.64a3.11,3.11,0,0,1,2.549-1.741,3.113,3.113,0,0,1,.2,3.081,3.113,3.113,0,0,1-2.55,1.741A3.112,3.112,0,0,1-4759.924-6631.958Zm-4.292,3a3.115,3.115,0,0,1,2.245,2.12,3.114,3.114,0,0,1-.682,3.012,3.114,3.114,0,0,1-2.245-2.12A3.112,3.112,0,0,1-4764.217-6628.955Zm-1.6,8.372a3.116,3.116,0,0,1,2.647,1.591,3.116,3.116,0,0,1-.022,3.088,3.116,3.116,0,0,1-2.647-1.591A3.117,3.117,0,0,1-4765.815-6620.583Zm.229,8.52a3.116,3.116,0,0,1,2.925.989,3.115,3.115,0,0,1,.639,3.021,3.114,3.114,0,0,1-2.926-.988A3.111,3.111,0,0,1-4765.585-6612.062Zm2.044,8.275a3.111,3.111,0,0,1,3.069.34,3.112,3.112,0,0,1,1.269,2.814,3.113,3.113,0,0,1-3.068-.34A3.111,3.111,0,0,1-4763.542-6603.788Zm3.766,7.646a3.112,3.112,0,0,1,3.07-.324,3.117,3.117,0,0,1,1.842,2.479,3.116,3.116,0,0,1-3.071.323A3.113,3.113,0,0,1-4759.775-6596.142Zm7.642,8.692a3.112,3.112,0,0,1-2.329-2.027,3.114,3.114,0,0,1,2.931-.972,3.112,3.112,0,0,1,2.328,2.027A3.109,3.109,0,0,1-4752.133-6587.45Zm6.994,4.83a3.113,3.113,0,0,1-2.708-1.483,3.114,3.114,0,0,1,2.655-1.576,3.113,3.113,0,0,1,2.708,1.483A3.112,3.112,0,0,1-4745.14-6582.62Zm7.865,3.224a3.112,3.112,0,0,1-2.962-.87,3.114,3.114,0,0,1,2.257-2.108,3.116,3.116,0,0,1,2.962.87A3.111,3.111,0,0,1-4737.274-6579.4Z" transform="translate(4768.536 6636.901)" fill="url(#linear-gradient)"/>
  <path id="Tracé_19" data-name="Tracé 19" d="M-4614-6614.85a7.183,7.183,0,0,0,1.271-1.651,7.247,7.247,0,0,0-.051-7.187,7.383,7.383,0,0,0-1.6.223,7.254,7.254,0,0,0,.89-1.886,7.244,7.244,0,0,0-1.587-7.008,7.3,7.3,0,0,0-2.882,1.436,7.188,7.188,0,0,0-.623-1.923,7.243,7.243,0,0,0-5.933-4.055,7.244,7.244,0,0,0-.469,7.17c.005.013.013.025.019.037a7.286,7.286,0,0,0-1.916.2,7.241,7.241,0,0,0,1.646,6.786,7.232,7.232,0,0,0,.474,6.279,7.233,7.233,0,0,0-.879,6.234,7.232,7.232,0,0,0-2.191,5.9,7.231,7.231,0,0,0-3.4,5.3,7.235,7.235,0,0,0-4.457,4.449,7.236,7.236,0,0,0-5.3,3.393,7.238,7.238,0,0,0-6.067,2.347,7.236,7.236,0,0,0-1.7,6.463l-.021.021c.027.089.06.176.091.263s.047.181.074.27l.029,0a7.235,7.235,0,0,0,5.058,4.368,7.244,7.244,0,0,0,6.895-2.025,7.23,7.23,0,0,0-.654-1.481,7.223,7.223,0,0,0,2.058.336,7.244,7.244,0,0,0,6.3-3.452,7.346,7.346,0,0,0-.957-1.307,7.224,7.224,0,0,0,2.082-.11,7.246,7.246,0,0,0,5.419-4.719,7.314,7.314,0,0,0-1.213-1.073,7.227,7.227,0,0,0,2.011-.553,7.242,7.242,0,0,0,4.285-5.768,7.3,7.3,0,0,0-1.415-.789,7.223,7.223,0,0,0,1.846-.97,7.243,7.243,0,0,0,2.953-6.55,7.2,7.2,0,0,0-1.551-.469,7.233,7.233,0,0,0,1.6-1.343,7.24,7.24,0,0,0,1.484-7.03A7.252,7.252,0,0,0-4614-6614.85Zm-14.685,22.325c-.069.009-.141.022-.211.033.018-.065.038-.129.053-.195l.115.1c0,.009,0,.019,0,.029C-4628.716-6592.545-4628.7-6592.536-4628.684-6592.524Zm-12.772,8.1c.02.047.041.093.062.14l-.016.023.031.049c-.068-.021-.137-.039-.206-.058C-4641.542-6584.318-4641.5-6584.369-4641.457-6584.421Zm6.754-3.449c.029.041.06.082.09.122a.265.265,0,0,0-.011.027c.013.013.027.027.041.042-.071-.006-.142-.009-.213-.013C-4634.765-6587.753-4634.731-6587.812-4634.7-6587.871Zm10.556-10.77c.044.024.088.049.133.073,0,.009,0,.019,0,.028.018.008.036.013.054.022-.066.023-.133.051-.2.076C-4624.153-6598.507-4624.148-6598.575-4624.146-6598.641Zm5.169-14.009c-.025-.062-.048-.125-.074-.187.05,0,.1.009.151.011a.143.143,0,0,0,.013.026l.058,0C-4618.879-6612.752-4618.927-6612.7-4618.977-6612.649Zm.257-7.769c.019,0,.038-.011.056-.016-.039.06-.075.121-.112.181-.038-.055-.074-.111-.113-.166l.15-.022Zm-1.94-2.683a3.113,3.113,0,0,1-2.967-.855,3.108,3.108,0,0,1-.774-2.989,3.11,3.11,0,0,1,2.967.855A3.112,3.112,0,0,1-4620.661-6623.1Zm-2.382,2.711a3.116,3.116,0,0,1,2.716,1.469,3.118,3.118,0,0,1,.117,3.085,3.11,3.11,0,0,1-2.715-1.469A3.116,3.116,0,0,1-4623.042-6620.39Zm-.073,6.694a3.114,3.114,0,0,1,2.338,2.017,3.115,3.115,0,0,1-.544,3.04,3.115,3.115,0,0,1-2.339-2.017A3.117,3.117,0,0,1-4623.115-6613.7Zm2.317,8.431c-.011-.065-.021-.133-.034-.2l.146.043a.251.251,0,0,0,.008.027l.057.01C-4620.681-6605.345-4620.74-6605.3-4620.8-6605.265Zm6.3-12.229a3.114,3.114,0,0,1-2.646,1.591,3.117,3.117,0,0,1-.022-3.088,3.117,3.117,0,0,1,2.646-1.591A3.114,3.114,0,0,1-4614.5-6617.494Zm-1.62-11.46a3.113,3.113,0,0,1,.682,3.012,3.114,3.114,0,0,1-2.245,2.12,3.116,3.116,0,0,1-.682-3.012A3.116,3.116,0,0,1-4616.119-6628.955Zm-6.841-4.745a3.111,3.111,0,0,1,2.55,1.741,3.111,3.111,0,0,1-.2,3.081,3.113,3.113,0,0,1-2.55-1.741A3.114,3.114,0,0,1-4622.96-6633.7Zm-1.657,26.528a3.113,3.113,0,0,1,1.854,2.47,3.114,3.114,0,0,1-1.182,2.853,3.115,3.115,0,0,1-1.854-2.469A3.114,3.114,0,0,1-4624.617-6607.172Zm-4.626,8.586a3.109,3.109,0,0,1,1.765-2.533,3.113,3.113,0,0,1,1.283,2.808,3.114,3.114,0,0,1-1.765,2.535A3.114,3.114,0,0,1-4629.243-6598.585Zm-4.59,4.865a3.115,3.115,0,0,1,2.266-2.1,3.114,3.114,0,0,1,.652,3.019,3.112,3.112,0,0,1-2.265,2.1A3.113,3.113,0,0,1-4633.833-6593.721Zm-5.524,3.771a3.116,3.116,0,0,1,2.663-1.565,3.115,3.115,0,0,1-.008,3.088,3.115,3.115,0,0,1-2.662,1.565A3.116,3.116,0,0,1-4639.358-6589.95Zm-6.2,2.5a3.11,3.11,0,0,1,2.934-.96,3.114,3.114,0,0,1-.666,3.014,3.118,3.118,0,0,1-2.935.961A3.114,3.114,0,0,1-4645.559-6587.446Zm2.5,8.05a3.113,3.113,0,0,1-2.257-2.108,3.115,3.115,0,0,1,2.962-.87,3.115,3.115,0,0,1,2.258,2.108A3.113,3.113,0,0,1-4643.061-6579.4Zm7.865-3.224a3.111,3.111,0,0,1-2.654-1.576,3.111,3.111,0,0,1,2.707-1.483,3.111,3.111,0,0,1,2.655,1.576A3.113,3.113,0,0,1-4635.2-6582.62Zm6.994-4.83a3.109,3.109,0,0,1-2.93-.973,3.111,3.111,0,0,1,2.329-2.027,3.112,3.112,0,0,1,2.93.972A3.11,3.11,0,0,1-4628.2-6587.45Zm5.8-6.213a3.115,3.115,0,0,1-3.071-.323,3.115,3.115,0,0,1,1.841-2.479,3.112,3.112,0,0,1,3.07.324A3.114,3.114,0,0,1-4622.4-6593.663Zm4.338-7.31a3.116,3.116,0,0,1-3.07.34,3.114,3.114,0,0,1,1.269-2.814,3.113,3.113,0,0,1,3.069-.34A3.113,3.113,0,0,1-4618.062-6600.973Zm2.675-8.068a3.113,3.113,0,0,1-2.925.988,3.114,3.114,0,0,1,.638-3.021,3.117,3.117,0,0,1,2.925-.989A3.114,3.114,0,0,1-4615.388-6609.041Z" transform="translate(4696.989 6636.901)" fill="url(#linear-gradient-2)"/>
</svg>
