<svg xmlns="http://www.w3.org/2000/svg" width="69.676" height="82.654" viewBox="0 0 69.676 82.654">
  <g id="Groupe_53" data-name="Groupe 53" transform="translate(0.884 1.25)">
    <path id="Tracé_578" data-name="Tracé 578" d="M-4556.38-4192.744v67.327h-36.25a13.42,13.42,0,0,0,.638-1.578,13.6,13.6,0,0,0,.687-4.275,13.5,13.5,0,0,0-.6-3.988c-.028-.1-.059-.193-.09-.287a13.6,13.6,0,0,0-6.7-7.806c-.165-.087-.333-.168-.5-.246a13.512,13.512,0,0,0-5.682-1.244,13.619,13.619,0,0,0-2.872.3,13.476,13.476,0,0,0-1.543.433v-48.64Z" transform="translate(4623.922 4192.744)" fill="none" stroke="#fff" stroke-miterlimit="10" stroke-width="2.5"/>
    <path id="Tracé_579" data-name="Tracé 579" d="M-4544.758-4056.4v15.065h-23.68c-.028-.1-.059-.193-.09-.287a13.6,13.6,0,0,0-6.7-7.806v-6.973Z" transform="translate(4600.458 4098.824)" fill="none" stroke="#fff" stroke-miterlimit="10" stroke-width="2.5"/>
    <line id="Ligne_44" data-name="Ligne 44" x2="31.711" transform="translate(25.232 9.812)" fill="none" stroke="#fff" stroke-miterlimit="10" stroke-width="2.5"/>
    <line id="Ligne_45" data-name="Ligne 45" x2="31.711" transform="translate(25.232 17.317)" fill="none" stroke="#fff" stroke-miterlimit="10" stroke-width="2.5"/>
    <line id="Ligne_46" data-name="Ligne 46" x2="15.856" transform="translate(41.088 24.822)" fill="none" stroke="#fff" stroke-miterlimit="10" stroke-width="2.5"/>
    <line id="Ligne_47" data-name="Ligne 47" x2="15.856" transform="translate(41.088 32.328)" fill="none" stroke="#fff" stroke-miterlimit="10" stroke-width="2.5"/>
    <path id="Tracé_580" data-name="Tracé 580" d="M-4611.577-4025.212a13.6,13.6,0,0,1-.687,4.275,13.373,13.373,0,0,1-.638,1.578,13.566,13.566,0,0,1-12.243,7.716,13.524,13.524,0,0,1-9.6-3.973,13.537,13.537,0,0,1-3.976-9.6,13.567,13.567,0,0,1,9.156-12.834,13.474,13.474,0,0,1,1.543-.432,13.619,13.619,0,0,1,2.872-.305,13.5,13.5,0,0,1,5.682,1.245c.168.078.336.159.5.246a13.6,13.6,0,0,1,6.7,7.806c.031.094.062.19.09.286A13.506,13.506,0,0,1-4611.577-4025.212Z" transform="translate(4644.194 4086.687)" fill="none" stroke="#fff" stroke-miterlimit="10" stroke-width="2.5"/>
    <line id="Ligne_48" data-name="Ligne 48" x1="9.452" y2="9.45" transform="translate(0 71.069)" fill="none" stroke="#fff" stroke-miterlimit="10" stroke-width="2.5"/>
  </g>
</svg>
