<svg xmlns="http://www.w3.org/2000/svg" width="69.911" height="69.74" viewBox="0 0 69.911 69.74">
  <g id="Groupe_46" data-name="Groupe 46" transform="translate(1.25)">
    <path id="Tracé_564" data-name="Tracé 564" d="M-3478.313-4496.167" transform="translate(3512.019 4564.657)" fill="none" stroke="#fff" stroke-miterlimit="10" stroke-width="2.5"/>
    <path id="Tracé_565" data-name="Tracé 565" d="M-3463.7-4671.845a33.713,33.713,0,0,1,29.465,33.442v17.522" transform="translate(3501.643 4689.371)" fill="none" stroke="#fff" stroke-miterlimit="10" stroke-width="2.5"/>
    <path id="Tracé_566" data-name="Tracé 566" d="M-3560.794-4645.5a12.38,12.38,0,0,1,12.38,12.38,12.379,12.379,0,0,1-12.38,12.379H-3594.5v-17.522a33.713,33.713,0,0,1,29.038-33.386" transform="translate(3594.5 4689.232)" fill="none" stroke="#fff" stroke-miterlimit="10" stroke-width="2.5"/>
    <line id="Ligne_31" data-name="Ligne 31" x2="21.021" transform="translate(12.685 43.73)" fill="none" stroke="#fff" stroke-miterlimit="10" stroke-width="2.5"/>
    <line id="Ligne_32" data-name="Ligne 32" x1="15.834" y2="24.749" transform="translate(28.526 18.982)" fill="none" stroke="#fff" stroke-miterlimit="10" stroke-width="2.5"/>
    <line id="Ligne_33" data-name="Ligne 33" x1="13.765" y2="21.512" transform="translate(40.411 24.19)" fill="none" stroke="#fff" stroke-miterlimit="10" stroke-width="2.5"/>
    <line id="Ligne_34" data-name="Ligne 34" y2="24.446" transform="translate(19.653 43.73)" fill="none" stroke="#fff" stroke-miterlimit="10" stroke-width="2.5"/>
    <line id="Ligne_35" data-name="Ligne 35" y2="24.446" transform="translate(26.572 43.73)" fill="none" stroke="#fff" stroke-miterlimit="10" stroke-width="2.5"/>
    <line id="Ligne_36" data-name="Ligne 36" y1="24.446" transform="translate(33.492 43.73)" fill="none" stroke="#fff" stroke-miterlimit="10" stroke-width="2.5"/>
    <line id="Ligne_37" data-name="Ligne 37" y2="20.816" transform="translate(40.411 45.702)" fill="none" stroke="#fff" stroke-miterlimit="10" stroke-width="2.5"/>
    <path id="Tracé_567" data-name="Tracé 567" d="M-3502.309-4732.257a16.072,16.072,0,0,1-16.072,16.072,16.071,16.071,0,0,1-16.072-16.072" transform="translate(3551.872 4732.257)" fill="none" stroke="#fff" stroke-miterlimit="10" stroke-width="2.5"/>
    <path id="Tracé_568" data-name="Tracé 568" d="M-3494.406-4679.016v2.623a4.456,4.456,0,0,0,4.454,4.456,4.455,4.455,0,0,0,4.454-4.456v-2.623" transform="translate(3523.443 4694.461)" fill="none" stroke="#fff" stroke-miterlimit="10" stroke-width="2.5"/>
  </g>
</svg>
