<svg xmlns="http://www.w3.org/2000/svg" width="335" height="431.093" viewBox="0 0 335 431.093">
  <g id="Groupe_23" data-name="Groupe 23" transform="translate(938.679 6055.19)" opacity="0.2">
    <path id="Tracé_75" data-name="Tracé 75" d="M-739.064-6003.268v-4.036H-743.1v4.036h-4.036v4.036h4.036v4.036h4.036v-4.036h4.036v-4.036Z" transform="translate(-126.965 -31.741)" fill="#ccc" opacity="0.2"/>
    <path id="Tracé_76" data-name="Tracé 76" d="M-786.95-5955.382v-4.036h-4.036v4.036h-4.036v4.036h4.036v4.036h4.036v-4.036h4.036v-4.036Z" transform="translate(-95.224 -63.482)" fill="#ccc" opacity="0.2"/>
    <path id="Tracé_77" data-name="Tracé 77" d="M-739.064-5955.382v-4.036H-743.1v4.036h-4.036v4.036h4.036v4.036h4.036v-4.036h4.036v-4.036Z" transform="translate(-126.965 -63.482)" fill="#ccc" opacity="0.4"/>
    <path id="Tracé_78" data-name="Tracé 78" d="M-786.95-5907.5v-4.037h-4.036v4.037h-4.036v4.036h4.036v4.037h4.036v-4.037h4.036v-4.036Z" transform="translate(-95.224 -95.224)" fill="#ccc" opacity="0.2"/>
    <path id="Tracé_79" data-name="Tracé 79" d="M-739.064-5907.5v-4.037H-743.1v4.037h-4.036v4.036h4.036v4.037h4.036v-4.037h4.036v-4.036Z" transform="translate(-126.965 -95.224)" fill="#ccc" opacity="0.4"/>
    <path id="Tracé_80" data-name="Tracé 80" d="M-786.95-5859.611v-4.036h-4.036v4.036h-4.036v4.036h4.036v4.036h4.036v-4.036h4.036v-4.036Z" transform="translate(-95.224 -126.965)" fill="#ccc" opacity="0.2"/>
    <path id="Tracé_81" data-name="Tracé 81" d="M-739.064-5859.611v-4.036H-743.1v4.036h-4.036v4.036h4.036v4.036h4.036v-4.036h4.036v-4.036Z" transform="translate(-126.965 -126.965)" fill="#ccc" opacity="0.4"/>
    <path id="Tracé_82" data-name="Tracé 82" d="M-834.836-5811.725v-4.036h-4.036v4.036h-4.036v4.036h4.036v4.036h4.036v-4.036h4.036v-4.036Z" transform="translate(-63.482 -158.706)" fill="#ccc" opacity="0.2"/>
    <path id="Tracé_83" data-name="Tracé 83" d="M-786.95-5811.725v-4.036h-4.036v4.036h-4.036v4.036h4.036v4.036h4.036v-4.036h4.036v-4.036Z" transform="translate(-95.224 -158.706)" fill="#ccc" opacity="0.4"/>
    <path id="Tracé_84" data-name="Tracé 84" d="M-739.064-5811.725v-4.036H-743.1v4.036h-4.036v4.036h4.036v4.036h4.036v-4.036h4.036v-4.036Z" transform="translate(-126.965 -158.706)" fill="#ccc" opacity="0.4"/>
    <path id="Tracé_85" data-name="Tracé 85" d="M-691.178-6051.154v-4.036h-4.036v4.036h-4.036v4.036h4.036v4.036h4.036v-4.036h4.036v-4.036Z" transform="translate(-158.706)" fill="#ccc" opacity="0.2"/>
    <path id="Tracé_86" data-name="Tracé 86" d="M-643.293-6051.154v-4.036h-4.036v4.036h-4.036v4.036h4.036v4.036h4.036v-4.036h4.036v-4.036Z" transform="translate(-190.447)" fill="#ccc" opacity="0.4"/>
    <path id="Tracé_87" data-name="Tracé 87" d="M-691.178-6003.268v-4.036h-4.036v4.036h-4.036v4.036h4.036v4.036h4.036v-4.036h4.036v-4.036Z" transform="translate(-158.706 -31.741)" fill="#ccc" opacity="0.4"/>
    <path id="Tracé_88" data-name="Tracé 88" d="M-643.293-6003.268v-4.036h-4.036v4.036h-4.036v4.036h4.036v4.036h4.036v-4.036h4.036v-4.036Z" transform="translate(-190.447 -31.741)" fill="#ccc" opacity="0.6"/>
    <path id="Tracé_89" data-name="Tracé 89" d="M-691.178-5955.382v-4.036h-4.036v4.036h-4.036v4.036h4.036v4.036h4.036v-4.036h4.036v-4.036Z" transform="translate(-158.706 -63.482)" fill="#ccc" opacity="0.6"/>
    <path id="Tracé_90" data-name="Tracé 90" d="M-643.293-5955.382v-4.036h-4.036v4.036h-4.036v4.036h4.036v4.036h4.036v-4.036h4.036v-4.036Z" transform="translate(-190.447 -63.482)" fill="#ccc" opacity="0.6"/>
    <path id="Tracé_91" data-name="Tracé 91" d="M-691.178-5907.5v-4.037h-4.036v4.037h-4.036v4.036h4.036v4.037h4.036v-4.037h4.036v-4.036Z" transform="translate(-158.706 -95.224)" fill="#ccc" opacity="0.6"/>
    <path id="Tracé_92" data-name="Tracé 92" d="M-643.293-5907.5v-4.037h-4.036v4.037h-4.036v4.036h4.036v4.037h4.036v-4.037h4.036v-4.036Z" transform="translate(-190.447 -95.224)" fill="#ccc" opacity="0.6"/>
    <path id="Tracé_93" data-name="Tracé 93" d="M-691.178-5859.611v-4.036h-4.036v4.036h-4.036v4.036h4.036v4.036h4.036v-4.036h4.036v-4.036Z" transform="translate(-158.706 -126.965)" fill="#ccc" opacity="0.6"/>
    <path id="Tracé_94" data-name="Tracé 94" d="M-643.293-5859.611v-4.036h-4.036v4.036h-4.036v4.036h4.036v4.036h4.036v-4.036h4.036v-4.036Z" transform="translate(-190.447 -126.965)" fill="#ccc" opacity="0.6"/>
    <path id="Tracé_95" data-name="Tracé 95" d="M-691.178-5811.725v-4.036h-4.036v4.036h-4.036v4.036h4.036v4.036h4.036v-4.036h4.036v-4.036Z" transform="translate(-158.706 -158.706)" fill="#ccc" opacity="0.6"/>
    <path id="Tracé_96" data-name="Tracé 96" d="M-643.293-5811.725v-4.036h-4.036v4.036h-4.036v4.036h4.036v4.036h4.036v-4.036h4.036v-4.036Z" transform="translate(-190.447 -158.706)" fill="#ccc" opacity="0.8"/>
    <path id="Tracé_97" data-name="Tracé 97" d="M-834.836-5763.839v-4.036h-4.036v4.036h-4.036v4.036h4.036v4.036h4.036v-4.036h4.036v-4.036Z" transform="translate(-63.482 -190.447)" fill="#ccc" opacity="0.2"/>
    <path id="Tracé_98" data-name="Tracé 98" d="M-786.95-5763.839v-4.036h-4.036v4.036h-4.036v4.036h4.036v4.036h4.036v-4.036h4.036v-4.036Z" transform="translate(-95.224 -190.447)" fill="#ccc" opacity="0.4"/>
    <path id="Tracé_99" data-name="Tracé 99" d="M-739.064-5763.839v-4.036H-743.1v4.036h-4.036v4.036h4.036v4.036h4.036v-4.036h4.036v-4.036Z" transform="translate(-126.965 -190.447)" fill="#ccc" opacity="0.4"/>
    <path id="Tracé_100" data-name="Tracé 100" d="M-834.836-5715.954v-4.036h-4.036v4.036h-4.036v4.036h4.036v4.036h4.036v-4.036h4.036v-4.036Z" transform="translate(-63.482 -222.188)" fill="#ccc" opacity="0.2"/>
    <path id="Tracé_101" data-name="Tracé 101" d="M-786.95-5715.954v-4.036h-4.036v4.036h-4.036v4.036h4.036v4.036h4.036v-4.036h4.036v-4.036Z" transform="translate(-95.224 -222.188)" fill="#ccc" opacity="0.4"/>
    <path id="Tracé_102" data-name="Tracé 102" d="M-739.064-5715.954v-4.036H-743.1v4.036h-4.036v4.036h4.036v4.036h4.036v-4.036h4.036v-4.036Z" transform="translate(-126.965 -222.188)" fill="#ccc" opacity="0.4"/>
    <path id="Tracé_103" data-name="Tracé 103" d="M-882.721-5668.068v-4.036h-4.036v4.036h-4.036v4.036h4.036V-5660h4.036v-4.037h4.036v-4.036Z" transform="translate(-31.741 -253.929)" fill="#ccc" opacity="0.2"/>
    <path id="Tracé_104" data-name="Tracé 104" d="M-834.836-5668.068v-4.036h-4.036v4.036h-4.036v4.036h4.036V-5660h4.036v-4.037h4.036v-4.036Z" transform="translate(-63.482 -253.929)" fill="#ccc" opacity="0.4"/>
    <path id="Tracé_105" data-name="Tracé 105" d="M-786.95-5668.068v-4.036h-4.036v4.036h-4.036v4.036h4.036V-5660h4.036v-4.037h4.036v-4.036Z" transform="translate(-95.224 -253.929)" fill="#ccc" opacity="0.4"/>
    <path id="Tracé_106" data-name="Tracé 106" d="M-739.064-5668.068v-4.036H-743.1v4.036h-4.036v4.036h4.036V-5660h4.036v-4.037h4.036v-4.036Z" transform="translate(-126.965 -253.929)" fill="#ccc" opacity="0.4"/>
    <path id="Tracé_107" data-name="Tracé 107" d="M-691.178-5763.839v-4.036h-4.036v4.036h-4.036v4.036h4.036v4.036h4.036v-4.036h4.036v-4.036Z" transform="translate(-158.706 -190.447)" fill="#ccc" opacity="0.6"/>
    <path id="Tracé_108" data-name="Tracé 108" d="M-643.293-5763.839v-4.036h-4.036v4.036h-4.036v4.036h4.036v4.036h4.036v-4.036h4.036v-4.036Z" transform="translate(-190.447 -190.447)" fill="#ccc" opacity="0.8"/>
    <path id="Tracé_109" data-name="Tracé 109" d="M-691.178-5715.954v-4.036h-4.036v4.036h-4.036v4.036h4.036v4.036h4.036v-4.036h4.036v-4.036Z" transform="translate(-158.706 -222.188)" fill="#ccc" opacity="0.6"/>
    <path id="Tracé_110" data-name="Tracé 110" d="M-643.293-5715.954v-4.036h-4.036v4.036h-4.036v4.036h4.036v4.036h4.036v-4.036h4.036v-4.036Z" transform="translate(-190.447 -222.188)" fill="#ccc" opacity="0.8"/>
    <path id="Tracé_111" data-name="Tracé 111" d="M-691.178-5668.068v-4.036h-4.036v4.036h-4.036v4.036h4.036V-5660h4.036v-4.037h4.036v-4.036Z" transform="translate(-158.706 -253.929)" fill="#ccc" opacity="0.6"/>
    <path id="Tracé_112" data-name="Tracé 112" d="M-643.293-5668.068v-4.036h-4.036v4.036h-4.036v4.036h4.036V-5660h4.036v-4.037h4.036v-4.036Z" transform="translate(-190.447 -253.929)" fill="#ccc" opacity="0.8"/>
    <path id="Tracé_113" data-name="Tracé 113" d="M-595.407-6051.154v-4.036h-4.036v4.036h-4.036v4.036h4.036v4.036h4.036v-4.036h4.036v-4.036Z" transform="translate(-222.188)" fill="#ccc" opacity="0.6"/>
    <path id="Tracé_114" data-name="Tracé 114" d="M-547.521-6051.154v-4.036h-4.036v4.036h-4.036v4.036h4.036v4.036h4.036v-4.036h4.036v-4.036Z" transform="translate(-253.929)" fill="#ccc" opacity="0.4"/>
    <path id="Tracé_115" data-name="Tracé 115" d="M-499.635-6051.154v-4.036h-4.036v4.036h-4.036v4.036h4.036v4.036h4.036v-4.036h4.036v-4.036Z" transform="translate(-285.671)" fill="#ccc" opacity="0.4"/>
    <path id="Tracé_116" data-name="Tracé 116" d="M-451.75-6051.154v-4.036h-4.036v4.036h-4.036v4.036h4.036v4.036h4.036v-4.036h4.036v-4.036Z" transform="translate(-317.412)" fill="#ccc" opacity="0.4"/>
    <path id="Tracé_117" data-name="Tracé 117" d="M-403.864-6051.154v-4.036H-407.9v4.036h-4.036v4.036h4.036v4.036h4.036v-4.036h4.036v-4.036Z" transform="translate(-349.153)" fill="#ccc" opacity="0.2"/>
    <path id="Tracé_118" data-name="Tracé 118" d="M-595.407-6003.268v-4.036h-4.036v4.036h-4.036v4.036h4.036v4.036h4.036v-4.036h4.036v-4.036Z" transform="translate(-222.188 -31.741)" fill="#ccc" opacity="0.6"/>
    <path id="Tracé_119" data-name="Tracé 119" d="M-547.521-6003.268v-4.036h-4.036v4.036h-4.036v4.036h4.036v4.036h4.036v-4.036h4.036v-4.036Z" transform="translate(-253.929 -31.741)" fill="#ccc" opacity="0.6"/>
    <path id="Tracé_120" data-name="Tracé 120" d="M-499.635-6003.268v-4.036h-4.036v4.036h-4.036v4.036h4.036v4.036h4.036v-4.036h4.036v-4.036Z" transform="translate(-285.671 -31.741)" fill="#ccc" opacity="0.4"/>
    <path id="Tracé_121" data-name="Tracé 121" d="M-451.75-6003.268v-4.036h-4.036v4.036h-4.036v4.036h4.036v4.036h4.036v-4.036h4.036v-4.036Z" transform="translate(-317.412 -31.741)" fill="#ccc" opacity="0.4"/>
    <path id="Tracé_122" data-name="Tracé 122" d="M-403.864-6003.268v-4.036H-407.9v4.036h-4.036v4.036h4.036v4.036h4.036v-4.036h4.036v-4.036Z" transform="translate(-349.153 -31.741)" fill="#ccc" opacity="0.2"/>
    <path id="Tracé_123" data-name="Tracé 123" d="M-595.407-5955.382v-4.036h-4.036v4.036h-4.036v4.036h4.036v4.036h4.036v-4.036h4.036v-4.036Z" transform="translate(-222.188 -63.482)" fill="#ccc" opacity="0.6"/>
    <path id="Tracé_124" data-name="Tracé 124" d="M-547.521-5955.382v-4.036h-4.036v4.036h-4.036v4.036h4.036v4.036h4.036v-4.036h4.036v-4.036Z" transform="translate(-253.929 -63.482)" fill="#ccc" opacity="0.6"/>
    <path id="Tracé_125" data-name="Tracé 125" d="M-499.635-5955.382v-4.036h-4.036v4.036h-4.036v4.036h4.036v4.036h4.036v-4.036h4.036v-4.036Z" transform="translate(-285.671 -63.482)" fill="#ccc" opacity="0.4"/>
    <path id="Tracé_126" data-name="Tracé 126" d="M-451.75-5955.382v-4.036h-4.036v4.036h-4.036v4.036h4.036v4.036h4.036v-4.036h4.036v-4.036Z" transform="translate(-317.412 -63.482)" fill="#ccc" opacity="0.4"/>
    <path id="Tracé_127" data-name="Tracé 127" d="M-403.864-5955.382v-4.036H-407.9v4.036h-4.036v4.036h4.036v4.036h4.036v-4.036h4.036v-4.036Z" transform="translate(-349.153 -63.482)" fill="#ccc" opacity="0.4"/>
    <path id="Tracé_128" data-name="Tracé 128" d="M-595.407-5907.5v-4.037h-4.036v4.037h-4.036v4.036h4.036v4.037h4.036v-4.037h4.036v-4.036Z" transform="translate(-222.188 -95.224)" fill="#ccc" opacity="0.8"/>
    <path id="Tracé_129" data-name="Tracé 129" d="M-547.521-5907.5v-4.037h-4.036v4.037h-4.036v4.036h4.036v4.037h4.036v-4.037h4.036v-4.036Z" transform="translate(-253.929 -95.224)" fill="#ccc" opacity="0.6"/>
    <path id="Tracé_130" data-name="Tracé 130" d="M-499.635-5907.5v-4.037h-4.036v4.037h-4.036v4.036h4.036v4.037h4.036v-4.037h4.036v-4.036Z" transform="translate(-285.671 -95.224)" fill="#ccc" opacity="0.6"/>
    <path id="Tracé_131" data-name="Tracé 131" d="M-451.75-5907.5v-4.037h-4.036v4.037h-4.036v4.036h4.036v4.037h4.036v-4.037h4.036v-4.036Z" transform="translate(-317.412 -95.224)" fill="#ccc" opacity="0.6"/>
    <path id="Tracé_132" data-name="Tracé 132" d="M-403.864-5907.5v-4.037H-407.9v4.037h-4.036v4.036h4.036v4.037h4.036v-4.037h4.036v-4.036Z" transform="translate(-349.153 -95.224)" fill="#ccc" opacity="0.4"/>
    <path id="Tracé_133" data-name="Tracé 133" d="M-595.407-5859.611v-4.036h-4.036v4.036h-4.036v4.036h4.036v4.036h4.036v-4.036h4.036v-4.036Z" transform="translate(-222.188 -126.965)" fill="#ccc" opacity="0.8"/>
    <path id="Tracé_134" data-name="Tracé 134" d="M-547.521-5859.611v-4.036h-4.036v4.036h-4.036v4.036h4.036v4.036h4.036v-4.036h4.036v-4.036Z" transform="translate(-253.929 -126.965)" fill="#ccc" opacity="0.8"/>
    <path id="Tracé_135" data-name="Tracé 135" d="M-499.635-5859.611v-4.036h-4.036v4.036h-4.036v4.036h4.036v4.036h4.036v-4.036h4.036v-4.036Z" transform="translate(-285.671 -126.965)" fill="#ccc" opacity="0.6"/>
    <path id="Tracé_136" data-name="Tracé 136" d="M-451.75-5859.611v-4.036h-4.036v4.036h-4.036v4.036h4.036v4.036h4.036v-4.036h4.036v-4.036Z" transform="translate(-317.412 -126.965)" fill="#ccc" opacity="0.6"/>
    <path id="Tracé_137" data-name="Tracé 137" d="M-403.864-5859.611v-4.036H-407.9v4.036h-4.036v4.036h4.036v4.036h4.036v-4.036h4.036v-4.036Z" transform="translate(-349.153 -126.965)" fill="#ccc" opacity="0.6"/>
    <path id="Tracé_138" data-name="Tracé 138" d="M-595.407-5811.725v-4.036h-4.036v4.036h-4.036v4.036h4.036v4.036h4.036v-4.036h4.036v-4.036Z" transform="translate(-222.188 -158.706)" fill="#ccc" opacity="0.8"/>
    <path id="Tracé_139" data-name="Tracé 139" d="M-547.521-5811.725v-4.036h-4.036v4.036h-4.036v4.036h4.036v4.036h4.036v-4.036h4.036v-4.036Z" transform="translate(-253.929 -158.706)" fill="#ccc" opacity="0.8"/>
    <path id="Tracé_140" data-name="Tracé 140" d="M-499.635-5811.725v-4.036h-4.036v4.036h-4.036v4.036h4.036v4.036h4.036v-4.036h4.036v-4.036Z" transform="translate(-285.671 -158.706)" fill="#ccc" opacity="0.8"/>
    <path id="Tracé_141" data-name="Tracé 141" d="M-451.75-5811.725v-4.036h-4.036v4.036h-4.036v4.036h4.036v4.036h4.036v-4.036h4.036v-4.036Z" transform="translate(-317.412 -158.706)" fill="#ccc" opacity="0.8"/>
    <path id="Tracé_142" data-name="Tracé 142" d="M-403.864-5811.725v-4.036H-407.9v4.036h-4.036v4.036h4.036v4.036h4.036v-4.036h4.036v-4.036Z" transform="translate(-349.153 -158.706)" fill="#ccc" opacity="0.8"/>
    <path id="Tracé_143" data-name="Tracé 143" d="M-355.978-6003.268v-4.036h-4.036v4.036h-4.036v4.036h4.036v4.036h4.036v-4.036h4.036v-4.036Z" transform="translate(-380.894 -31.741)" fill="#ccc" opacity="0.2"/>
    <path id="Tracé_144" data-name="Tracé 144" d="M-308.092-6003.268v-4.036h-4.036v4.036h-4.036v4.036h4.036v4.036h4.036v-4.036h4.036v-4.036Z" transform="translate(-412.635 -31.741)" fill="#ccc" opacity="0.2"/>
    <path id="Tracé_145" data-name="Tracé 145" d="M-355.978-5955.382v-4.036h-4.036v4.036h-4.036v4.036h4.036v4.036h4.036v-4.036h4.036v-4.036Z" transform="translate(-380.894 -63.482)" fill="#ccc" opacity="0.2"/>
    <path id="Tracé_146" data-name="Tracé 146" d="M-308.092-5955.382v-4.036h-4.036v4.036h-4.036v4.036h4.036v4.036h4.036v-4.036h4.036v-4.036Z" transform="translate(-412.635 -63.482)" fill="#ccc" opacity="0.2"/>
    <path id="Tracé_147" data-name="Tracé 147" d="M-355.978-5907.5v-4.037h-4.036v4.037h-4.036v4.036h4.036v4.037h4.036v-4.037h4.036v-4.036Z" transform="translate(-380.894 -95.224)" fill="#ccc" opacity="0.4"/>
    <path id="Tracé_148" data-name="Tracé 148" d="M-308.092-5907.5v-4.037h-4.036v4.037h-4.036v4.036h4.036v4.037h4.036v-4.037h4.036v-4.036Z" transform="translate(-412.635 -95.224)" fill="#ccc" opacity="0.4"/>
    <path id="Tracé_149" data-name="Tracé 149" d="M-355.978-5859.611v-4.036h-4.036v4.036h-4.036v4.036h4.036v4.036h4.036v-4.036h4.036v-4.036Z" transform="translate(-380.894 -126.965)" fill="#ccc" opacity="0.6"/>
    <path id="Tracé_150" data-name="Tracé 150" d="M-308.092-5859.611v-4.036h-4.036v4.036h-4.036v4.036h4.036v4.036h4.036v-4.036h4.036v-4.036Z" transform="translate(-412.635 -126.965)" fill="#ccc" opacity="0.6"/>
    <path id="Tracé_151" data-name="Tracé 151" d="M-355.978-5811.725v-4.036h-4.036v4.036h-4.036v4.036h4.036v4.036h4.036v-4.036h4.036v-4.036Z" transform="translate(-380.894 -158.706)" fill="#ccc" opacity="0.6"/>
    <path id="Tracé_152" data-name="Tracé 152" d="M-308.092-5811.725v-4.036h-4.036v4.036h-4.036v4.036h4.036v4.036h4.036v-4.036h4.036v-4.036Z" transform="translate(-412.635 -158.706)" fill="#ccc" opacity="0.6"/>
    <path id="Tracé_153" data-name="Tracé 153" d="M-595.407-5763.839v-4.036h-4.036v4.036h-4.036v4.036h4.036v4.036h4.036v-4.036h4.036v-4.036Z" transform="translate(-222.188 -190.447)" fill="#ccc" opacity="0.8"/>
    <path id="Tracé_154" data-name="Tracé 154" d="M-547.521-5763.839v-4.036h-4.036v4.036h-4.036v4.036h4.036v4.036h4.036v-4.036h4.036v-4.036Z" transform="translate(-253.929 -190.447)" fill="#ccc" opacity="0.8"/>
    <path id="Tracé_155" data-name="Tracé 155" d="M-499.635-5763.839v-4.036h-4.036v4.036h-4.036v4.036h4.036v4.036h4.036v-4.036h4.036v-4.036Z" transform="translate(-285.671 -190.447)" fill="#ccc"/>
    <path id="Tracé_156" data-name="Tracé 156" d="M-451.75-5763.839v-4.036h-4.036v4.036h-4.036v4.036h4.036v4.036h4.036v-4.036h4.036v-4.036Z" transform="translate(-317.412 -190.447)" fill="#ccc" opacity="0.8"/>
    <path id="Tracé_157" data-name="Tracé 157" d="M-403.864-5763.839v-4.036H-407.9v4.036h-4.036v4.036h4.036v4.036h4.036v-4.036h4.036v-4.036Z" transform="translate(-349.153 -190.447)" fill="#ccc" opacity="0.8"/>
    <path id="Tracé_158" data-name="Tracé 158" d="M-595.407-5715.954v-4.036h-4.036v4.036h-4.036v4.036h4.036v4.036h4.036v-4.036h4.036v-4.036Z" transform="translate(-222.188 -222.188)" fill="#ccc"/>
    <path id="Tracé_159" data-name="Tracé 159" d="M-547.521-5715.954v-4.036h-4.036v4.036h-4.036v4.036h4.036v4.036h4.036v-4.036h4.036v-4.036Z" transform="translate(-253.929 -222.188)" fill="#ccc"/>
    <path id="Tracé_160" data-name="Tracé 160" d="M-499.635-5715.954v-4.036h-4.036v4.036h-4.036v4.036h4.036v4.036h4.036v-4.036h4.036v-4.036Z" transform="translate(-285.671 -222.188)" fill="#ccc"/>
    <path id="Tracé_161" data-name="Tracé 161" d="M-451.75-5715.954v-4.036h-4.036v4.036h-4.036v4.036h4.036v4.036h4.036v-4.036h4.036v-4.036Z" transform="translate(-317.412 -222.188)" fill="#ccc"/>
    <path id="Tracé_162" data-name="Tracé 162" d="M-403.864-5715.954v-4.036H-407.9v4.036h-4.036v4.036h4.036v4.036h4.036v-4.036h4.036v-4.036Z" transform="translate(-349.153 -222.188)" fill="#ccc"/>
    <path id="Tracé_163" data-name="Tracé 163" d="M-595.407-5668.068v-4.036h-4.036v4.036h-4.036v4.036h4.036V-5660h4.036v-4.037h4.036v-4.036Z" transform="translate(-222.188 -253.929)" fill="#ccc"/>
    <path id="Tracé_164" data-name="Tracé 164" d="M-547.521-5668.068v-4.036h-4.036v4.036h-4.036v4.036h4.036V-5660h4.036v-4.037h4.036v-4.036Z" transform="translate(-253.929 -253.929)" fill="#ccc"/>
    <path id="Tracé_165" data-name="Tracé 165" d="M-499.635-5668.068v-4.036h-4.036v4.036h-4.036v4.036h4.036V-5660h4.036v-4.037h4.036v-4.036Z" transform="translate(-285.671 -253.929)" fill="#ccc"/>
    <path id="Tracé_166" data-name="Tracé 166" d="M-451.75-5668.068v-4.036h-4.036v4.036h-4.036v4.036h4.036V-5660h4.036v-4.037h4.036v-4.036Z" transform="translate(-317.412 -253.929)" fill="#ccc"/>
    <path id="Tracé_167" data-name="Tracé 167" d="M-403.864-5668.068v-4.036H-407.9v4.036h-4.036v4.036h4.036V-5660h4.036v-4.037h4.036v-4.036Z" transform="translate(-349.153 -253.929)" fill="#ccc"/>
    <path id="Tracé_168" data-name="Tracé 168" d="M-355.978-5763.839v-4.036h-4.036v4.036h-4.036v4.036h4.036v4.036h4.036v-4.036h4.036v-4.036Z" transform="translate(-380.894 -190.447)" fill="#ccc" opacity="0.8"/>
    <path id="Tracé_169" data-name="Tracé 169" d="M-308.092-5763.839v-4.036h-4.036v4.036h-4.036v4.036h4.036v4.036h4.036v-4.036h4.036v-4.036Z" transform="translate(-412.635 -190.447)" fill="#ccc" opacity="0.8"/>
    <path id="Tracé_170" data-name="Tracé 170" d="M-355.978-5715.954v-4.036h-4.036v4.036h-4.036v4.036h4.036v4.036h4.036v-4.036h4.036v-4.036Z" transform="translate(-380.894 -222.188)" fill="#ccc"/>
    <path id="Tracé_171" data-name="Tracé 171" d="M-308.092-5715.954v-4.036h-4.036v4.036h-4.036v4.036h4.036v4.036h4.036v-4.036h4.036v-4.036Z" transform="translate(-412.635 -222.188)" fill="#ccc"/>
    <path id="Tracé_172" data-name="Tracé 172" d="M-355.978-5668.068v-4.036h-4.036v4.036h-4.036v4.036h4.036V-5660h4.036v-4.037h4.036v-4.036Z" transform="translate(-380.894 -253.929)" fill="#ccc"/>
    <path id="Tracé_173" data-name="Tracé 173" d="M-308.092-5668.068v-4.036h-4.036v4.036h-4.036v4.036h4.036V-5660h4.036v-4.037h4.036v-4.036Z" transform="translate(-412.635 -253.929)" fill="#ccc"/>
    <path id="Tracé_174" data-name="Tracé 174" d="M-260.207-6003.268v-4.036h-4.036v4.036h-4.036v4.036h4.036v4.036h4.036v-4.036h4.036v-4.036Z" transform="translate(-444.376 -31.741)" fill="#ccc" opacity="0.2"/>
    <path id="Tracé_175" data-name="Tracé 175" d="M-260.207-5955.382v-4.036h-4.036v4.036h-4.036v4.036h4.036v4.036h4.036v-4.036h4.036v-4.036Z" transform="translate(-444.376 -63.482)" fill="#ccc" opacity="0.2"/>
    <path id="Tracé_176" data-name="Tracé 176" d="M-212.321-5955.382v-4.036h-4.036v4.036h-4.036v4.036h4.036v4.036h4.036v-4.036h4.036v-4.036Z" transform="translate(-476.118 -63.482)" fill="#ccc" opacity="0.2"/>
    <path id="Tracé_177" data-name="Tracé 177" d="M-164.435-5955.382v-4.036h-4.036v4.036h-4.036v4.036h4.036v4.036h4.036v-4.036h4.036v-4.036Z" transform="translate(-507.859 -63.482)" fill="#ccc" opacity="0.2"/>
    <path id="Tracé_178" data-name="Tracé 178" d="M-116.549-5955.382v-4.036h-4.036v4.036h-4.036v4.036h4.036v4.036h4.036v-4.036h4.036v-4.036Z" transform="translate(-539.6 -63.482)" fill="#ccc" opacity="0.2"/>
    <path id="Tracé_179" data-name="Tracé 179" d="M-260.207-5907.5v-4.037h-4.036v4.037h-4.036v4.036h4.036v4.037h4.036v-4.037h4.036v-4.036Z" transform="translate(-444.376 -95.224)" fill="#ccc" opacity="0.4"/>
    <path id="Tracé_180" data-name="Tracé 180" d="M-212.321-5907.5v-4.037h-4.036v4.037h-4.036v4.036h4.036v4.037h4.036v-4.037h4.036v-4.036Z" transform="translate(-476.118 -95.224)" fill="#ccc" opacity="0.2"/>
    <path id="Tracé_181" data-name="Tracé 181" d="M-164.435-5907.5v-4.037h-4.036v4.037h-4.036v4.036h4.036v4.037h4.036v-4.037h4.036v-4.036Z" transform="translate(-507.859 -95.224)" fill="#ccc" opacity="0.2"/>
    <path id="Tracé_182" data-name="Tracé 182" d="M-116.549-5907.5v-4.037h-4.036v4.037h-4.036v4.036h4.036v4.037h4.036v-4.037h4.036v-4.036Z" transform="translate(-539.6 -95.224)" fill="#ccc" opacity="0.2"/>
    <path id="Tracé_183" data-name="Tracé 183" d="M-68.664-5907.5v-4.037H-72.7v4.037h-4.036v4.036H-72.7v4.037h4.036v-4.037h4.036v-4.036Z" transform="translate(-571.341 -95.224)" fill="#ccc" opacity="0.2"/>
    <path id="Tracé_184" data-name="Tracé 184" d="M-260.207-5859.611v-4.036h-4.036v4.036h-4.036v4.036h4.036v4.036h4.036v-4.036h4.036v-4.036Z" transform="translate(-444.376 -126.965)" fill="#ccc" opacity="0.6"/>
    <path id="Tracé_185" data-name="Tracé 185" d="M-212.321-5859.611v-4.036h-4.036v4.036h-4.036v4.036h4.036v4.036h4.036v-4.036h4.036v-4.036Z" transform="translate(-476.118 -126.965)" fill="#ccc" opacity="0.4"/>
    <path id="Tracé_186" data-name="Tracé 186" d="M-164.435-5859.611v-4.036h-4.036v4.036h-4.036v4.036h4.036v4.036h4.036v-4.036h4.036v-4.036Z" transform="translate(-507.859 -126.965)" fill="#ccc" opacity="0.4"/>
    <path id="Tracé_187" data-name="Tracé 187" d="M-116.549-5859.611v-4.036h-4.036v4.036h-4.036v4.036h4.036v4.036h4.036v-4.036h4.036v-4.036Z" transform="translate(-539.6 -126.965)" fill="#ccc" opacity="0.2"/>
    <path id="Tracé_188" data-name="Tracé 188" d="M-68.664-5859.611v-4.036H-72.7v4.036h-4.036v4.036H-72.7v4.036h4.036v-4.036h4.036v-4.036Z" transform="translate(-571.341 -126.965)" fill="#ccc" opacity="0.2"/>
    <path id="Tracé_189" data-name="Tracé 189" d="M-260.207-5811.725v-4.036h-4.036v4.036h-4.036v4.036h4.036v4.036h4.036v-4.036h4.036v-4.036Z" transform="translate(-444.376 -158.706)" fill="#ccc" opacity="0.6"/>
    <path id="Tracé_190" data-name="Tracé 190" d="M-212.321-5811.725v-4.036h-4.036v4.036h-4.036v4.036h4.036v4.036h4.036v-4.036h4.036v-4.036Z" transform="translate(-476.118 -158.706)" fill="#ccc" opacity="0.6"/>
    <path id="Tracé_191" data-name="Tracé 191" d="M-164.435-5811.725v-4.036h-4.036v4.036h-4.036v4.036h4.036v4.036h4.036v-4.036h4.036v-4.036Z" transform="translate(-507.859 -158.706)" fill="#ccc" opacity="0.4"/>
    <path id="Tracé_192" data-name="Tracé 192" d="M-116.549-5811.725v-4.036h-4.036v4.036h-4.036v4.036h4.036v4.036h4.036v-4.036h4.036v-4.036Z" transform="translate(-539.6 -158.706)" fill="#ccc" opacity="0.4"/>
    <path id="Tracé_193" data-name="Tracé 193" d="M-68.664-5811.725v-4.036H-72.7v4.036h-4.036v4.036H-72.7v4.036h4.036v-4.036h4.036v-4.036Z" transform="translate(-571.341 -158.706)" fill="#ccc" opacity="0.2"/>
    <path id="Tracé_194" data-name="Tracé 194" d="M-20.778-5859.611v-4.036h-4.036v4.036H-28.85v4.036h4.036v4.036h4.036v-4.036h4.036v-4.036Z" transform="translate(-603.082 -126.965)" fill="#ccc" opacity="0.2"/>
    <path id="Tracé_195" data-name="Tracé 195" d="M-20.778-5811.725v-4.036h-4.036v4.036H-28.85v4.036h4.036v4.036h4.036v-4.036h4.036v-4.036Z" transform="translate(-603.082 -158.706)" fill="#ccc" opacity="0.2"/>
    <path id="Tracé_196" data-name="Tracé 196" d="M-260.207-5763.839v-4.036h-4.036v4.036h-4.036v4.036h4.036v4.036h4.036v-4.036h4.036v-4.036Z" transform="translate(-444.376 -190.447)" fill="#ccc" opacity="0.8"/>
    <path id="Tracé_197" data-name="Tracé 197" d="M-212.321-5763.839v-4.036h-4.036v4.036h-4.036v4.036h4.036v4.036h4.036v-4.036h4.036v-4.036Z" transform="translate(-476.118 -190.447)" fill="#ccc" opacity="0.6"/>
    <path id="Tracé_198" data-name="Tracé 198" d="M-164.435-5763.839v-4.036h-4.036v4.036h-4.036v4.036h4.036v4.036h4.036v-4.036h4.036v-4.036Z" transform="translate(-507.859 -190.447)" fill="#ccc" opacity="0.6"/>
    <path id="Tracé_199" data-name="Tracé 199" d="M-116.549-5763.839v-4.036h-4.036v4.036h-4.036v4.036h4.036v4.036h4.036v-4.036h4.036v-4.036Z" transform="translate(-539.6 -190.447)" fill="#ccc" opacity="0.4"/>
    <path id="Tracé_200" data-name="Tracé 200" d="M-68.664-5763.839v-4.036H-72.7v4.036h-4.036v4.036H-72.7v4.036h4.036v-4.036h4.036v-4.036Z" transform="translate(-571.341 -190.447)" fill="#ccc" opacity="0.2"/>
    <path id="Tracé_201" data-name="Tracé 201" d="M-260.207-5715.954v-4.036h-4.036v4.036h-4.036v4.036h4.036v4.036h4.036v-4.036h4.036v-4.036Z" transform="translate(-444.376 -222.188)" fill="#ccc" opacity="0.8"/>
    <path id="Tracé_202" data-name="Tracé 202" d="M-212.321-5715.954v-4.036h-4.036v4.036h-4.036v4.036h4.036v4.036h4.036v-4.036h4.036v-4.036Z" transform="translate(-476.118 -222.188)" fill="#ccc" opacity="0.8"/>
    <path id="Tracé_203" data-name="Tracé 203" d="M-164.435-5715.954v-4.036h-4.036v4.036h-4.036v4.036h4.036v4.036h4.036v-4.036h4.036v-4.036Z" transform="translate(-507.859 -222.188)" fill="#ccc" opacity="0.6"/>
    <path id="Tracé_204" data-name="Tracé 204" d="M-116.549-5715.954v-4.036h-4.036v4.036h-4.036v4.036h4.036v4.036h4.036v-4.036h4.036v-4.036Z" transform="translate(-539.6 -222.188)" fill="#ccc" opacity="0.4"/>
    <path id="Tracé_205" data-name="Tracé 205" d="M-68.664-5715.954v-4.036H-72.7v4.036h-4.036v4.036H-72.7v4.036h4.036v-4.036h4.036v-4.036Z" transform="translate(-571.341 -222.188)" fill="#ccc" opacity="0.4"/>
    <path id="Tracé_206" data-name="Tracé 206" d="M-260.207-5668.068v-4.036h-4.036v4.036h-4.036v4.036h4.036V-5660h4.036v-4.037h4.036v-4.036Z" transform="translate(-444.376 -253.929)" fill="#ccc" opacity="0.8"/>
    <path id="Tracé_207" data-name="Tracé 207" d="M-212.321-5668.068v-4.036h-4.036v4.036h-4.036v4.036h4.036V-5660h4.036v-4.037h4.036v-4.036Z" transform="translate(-476.118 -253.929)" fill="#ccc" opacity="0.8"/>
    <path id="Tracé_208" data-name="Tracé 208" d="M-164.435-5668.068v-4.036h-4.036v4.036h-4.036v4.036h4.036V-5660h4.036v-4.037h4.036v-4.036Z" transform="translate(-507.859 -253.929)" fill="#ccc" opacity="0.6"/>
    <path id="Tracé_209" data-name="Tracé 209" d="M-116.549-5668.068v-4.036h-4.036v4.036h-4.036v4.036h4.036V-5660h4.036v-4.037h4.036v-4.036Z" transform="translate(-539.6 -253.929)" fill="#ccc" opacity="0.4"/>
    <path id="Tracé_210" data-name="Tracé 210" d="M-68.664-5668.068v-4.036H-72.7v4.036h-4.036v4.036H-72.7V-5660h4.036v-4.037h4.036v-4.036Z" transform="translate(-571.341 -253.929)" fill="#ccc" opacity="0.4"/>
    <path id="Tracé_211" data-name="Tracé 211" d="M-20.778-5763.839v-4.036h-4.036v4.036H-28.85v4.036h4.036v4.036h4.036v-4.036h4.036v-4.036Z" transform="translate(-603.082 -190.447)" fill="#ccc" opacity="0.2"/>
    <path id="Tracé_212" data-name="Tracé 212" d="M-20.778-5715.954v-4.036h-4.036v4.036H-28.85v4.036h4.036v4.036h4.036v-4.036h4.036v-4.036Z" transform="translate(-603.082 -222.188)" fill="#ccc" opacity="0.2"/>
    <path id="Tracé_213" data-name="Tracé 213" d="M-20.778-5668.068v-4.036h-4.036v4.036H-28.85v4.036h4.036V-5660h4.036v-4.037h4.036v-4.036Z" transform="translate(-603.082 -253.929)" fill="#ccc" opacity="0.4"/>
    <path id="Tracé_214" data-name="Tracé 214" d="M27.108-5668.068v-4.036H23.072v4.036H19.035v4.036h4.036V-5660h4.036v-4.037h4.036v-4.036Z" transform="translate(-634.823 -253.929)" fill="#ccc" opacity="0.2"/>
    <path id="Tracé_215" data-name="Tracé 215" d="M-882.721-5622.48v-4.036h-4.036v4.036h-4.036v4.036h4.036v4.036h4.036v-4.036h4.036v-4.036Z" transform="translate(-31.741 -284.147)" fill="#ccc" opacity="0.2"/>
    <path id="Tracé_216" data-name="Tracé 216" d="M-834.836-5622.48v-4.036h-4.036v4.036h-4.036v4.036h4.036v4.036h4.036v-4.036h4.036v-4.036Z" transform="translate(-63.482 -284.147)" fill="#ccc" opacity="0.4"/>
    <path id="Tracé_217" data-name="Tracé 217" d="M-786.95-5622.48v-4.036h-4.036v4.036h-4.036v4.036h4.036v4.036h4.036v-4.036h4.036v-4.036Z" transform="translate(-95.224 -284.147)" fill="#ccc" opacity="0.4"/>
    <path id="Tracé_218" data-name="Tracé 218" d="M-739.064-5622.48v-4.036H-743.1v4.036h-4.036v4.036h4.036v4.036h4.036v-4.036h4.036v-4.036Z" transform="translate(-126.965 -284.147)" fill="#ccc" opacity="0.4"/>
    <path id="Tracé_219" data-name="Tracé 219" d="M-930.607-5574.594v-4.037h-4.036v4.037h-4.036v4.036h4.036v4.037h4.036v-4.037h4.036v-4.036Z" transform="translate(0 -315.889)" fill="#ccc" opacity="0.2"/>
    <path id="Tracé_220" data-name="Tracé 220" d="M-882.721-5574.594v-4.037h-4.036v4.037h-4.036v4.036h4.036v4.037h4.036v-4.037h4.036v-4.036Z" transform="translate(-31.741 -315.889)" fill="#ccc" opacity="0.2"/>
    <path id="Tracé_221" data-name="Tracé 221" d="M-834.836-5574.594v-4.037h-4.036v4.037h-4.036v4.036h4.036v4.037h4.036v-4.037h4.036v-4.036Z" transform="translate(-63.482 -315.889)" fill="#ccc" opacity="0.4"/>
    <path id="Tracé_222" data-name="Tracé 222" d="M-786.95-5574.594v-4.037h-4.036v4.037h-4.036v4.036h4.036v4.037h4.036v-4.037h4.036v-4.036Z" transform="translate(-95.224 -315.889)" fill="#ccc" opacity="0.4"/>
    <path id="Tracé_223" data-name="Tracé 223" d="M-739.064-5574.594v-4.037H-743.1v4.037h-4.036v4.036h4.036v4.037h4.036v-4.037h4.036v-4.036Z" transform="translate(-126.965 -315.889)" fill="#ccc" opacity="0.4"/>
    <path id="Tracé_224" data-name="Tracé 224" d="M-930.607-5526.708v-4.036h-4.036v4.036h-4.036v4.036h4.036v4.036h4.036v-4.036h4.036v-4.036Z" transform="translate(0 -347.63)" fill="#ccc" opacity="0.2"/>
    <path id="Tracé_225" data-name="Tracé 225" d="M-882.721-5526.708v-4.036h-4.036v4.036h-4.036v4.036h4.036v4.036h4.036v-4.036h4.036v-4.036Z" transform="translate(-31.741 -347.63)" fill="#ccc" opacity="0.2"/>
    <path id="Tracé_226" data-name="Tracé 226" d="M-834.836-5526.708v-4.036h-4.036v4.036h-4.036v4.036h4.036v4.036h4.036v-4.036h4.036v-4.036Z" transform="translate(-63.482 -347.63)" fill="#ccc" opacity="0.4"/>
    <path id="Tracé_227" data-name="Tracé 227" d="M-786.95-5526.708v-4.036h-4.036v4.036h-4.036v4.036h4.036v4.036h4.036v-4.036h4.036v-4.036Z" transform="translate(-95.224 -347.63)" fill="#ccc" opacity="0.4"/>
    <path id="Tracé_228" data-name="Tracé 228" d="M-739.064-5526.708v-4.036H-743.1v4.036h-4.036v4.036h4.036v4.036h4.036v-4.036h4.036v-4.036Z" transform="translate(-126.965 -347.63)" fill="#ccc" opacity="0.4"/>
    <path id="Tracé_229" data-name="Tracé 229" d="M-930.607-5478.823v-4.036h-4.036v4.036h-4.036v4.036h4.036v4.036h4.036v-4.036h4.036v-4.036Z" transform="translate(0 -379.371)" fill="#ccc" opacity="0.2"/>
    <path id="Tracé_230" data-name="Tracé 230" d="M-882.721-5478.823v-4.036h-4.036v4.036h-4.036v4.036h4.036v4.036h4.036v-4.036h4.036v-4.036Z" transform="translate(-31.741 -379.371)" fill="#ccc" opacity="0.2"/>
    <path id="Tracé_231" data-name="Tracé 231" d="M-834.836-5478.823v-4.036h-4.036v4.036h-4.036v4.036h4.036v4.036h4.036v-4.036h4.036v-4.036Z" transform="translate(-63.482 -379.371)" fill="#ccc" opacity="0.4"/>
    <path id="Tracé_232" data-name="Tracé 232" d="M-786.95-5478.823v-4.036h-4.036v4.036h-4.036v4.036h4.036v4.036h4.036v-4.036h4.036v-4.036Z" transform="translate(-95.224 -379.371)" fill="#ccc" opacity="0.4"/>
    <path id="Tracé_233" data-name="Tracé 233" d="M-739.064-5478.823v-4.036H-743.1v4.036h-4.036v4.036h4.036v4.036h4.036v-4.036h4.036v-4.036Z" transform="translate(-126.965 -379.371)" fill="#ccc" opacity="0.6"/>
    <path id="Tracé_234" data-name="Tracé 234" d="M-930.607-5430.937v-4.036h-4.036v4.036h-4.036v4.036h4.036v4.036h4.036v-4.036h4.036v-4.036Z" transform="translate(0 -411.112)" fill="#ccc" opacity="0.2"/>
    <path id="Tracé_235" data-name="Tracé 235" d="M-882.721-5430.937v-4.036h-4.036v4.036h-4.036v4.036h4.036v4.036h4.036v-4.036h4.036v-4.036Z" transform="translate(-31.741 -411.112)" fill="#ccc" opacity="0.2"/>
    <path id="Tracé_236" data-name="Tracé 236" d="M-834.836-5430.937v-4.036h-4.036v4.036h-4.036v4.036h4.036v4.036h4.036v-4.036h4.036v-4.036Z" transform="translate(-63.482 -411.112)" fill="#ccc" opacity="0.4"/>
    <path id="Tracé_237" data-name="Tracé 237" d="M-786.95-5430.937v-4.036h-4.036v4.036h-4.036v4.036h4.036v4.036h4.036v-4.036h4.036v-4.036Z" transform="translate(-95.224 -411.112)" fill="#ccc" opacity="0.4"/>
    <path id="Tracé_238" data-name="Tracé 238" d="M-739.064-5430.937v-4.036H-743.1v4.036h-4.036v4.036h4.036v4.036h4.036v-4.036h4.036v-4.036Z" transform="translate(-126.965 -411.112)" fill="#ccc" opacity="0.6"/>
    <path id="Tracé_239" data-name="Tracé 239" d="M-930.607-5383.051v-4.036h-4.036v4.036h-4.036v4.036h4.036v4.036h4.036v-4.036h4.036v-4.036Z" transform="translate(0 -442.853)" fill="#ccc" opacity="0.2"/>
    <path id="Tracé_240" data-name="Tracé 240" d="M-882.721-5383.051v-4.036h-4.036v4.036h-4.036v4.036h4.036v4.036h4.036v-4.036h4.036v-4.036Z" transform="translate(-31.741 -442.853)" fill="#ccc" opacity="0.2"/>
    <path id="Tracé_241" data-name="Tracé 241" d="M-834.836-5383.051v-4.036h-4.036v4.036h-4.036v4.036h4.036v4.036h4.036v-4.036h4.036v-4.036Z" transform="translate(-63.482 -442.853)" fill="#ccc" opacity="0.4"/>
    <path id="Tracé_242" data-name="Tracé 242" d="M-786.95-5383.051v-4.036h-4.036v4.036h-4.036v4.036h4.036v4.036h4.036v-4.036h4.036v-4.036Z" transform="translate(-95.224 -442.853)" fill="#ccc" opacity="0.6"/>
    <path id="Tracé_243" data-name="Tracé 243" d="M-739.064-5383.051v-4.036H-743.1v4.036h-4.036v4.036h4.036v4.036h4.036v-4.036h4.036v-4.036Z" transform="translate(-126.965 -442.853)" fill="#ccc" opacity="0.8"/>
    <path id="Tracé_244" data-name="Tracé 244" d="M-691.178-5622.48v-4.036h-4.036v4.036h-4.036v4.036h4.036v4.036h4.036v-4.036h4.036v-4.036Z" transform="translate(-158.706 -284.147)" fill="#ccc" opacity="0.6"/>
    <path id="Tracé_245" data-name="Tracé 245" d="M-643.293-5622.48v-4.036h-4.036v4.036h-4.036v4.036h4.036v4.036h4.036v-4.036h4.036v-4.036Z" transform="translate(-190.447 -284.147)" fill="#ccc" opacity="0.8"/>
    <path id="Tracé_246" data-name="Tracé 246" d="M-691.178-5574.594v-4.037h-4.036v4.037h-4.036v4.036h4.036v4.037h4.036v-4.037h4.036v-4.036Z" transform="translate(-158.706 -315.889)" fill="#ccc" opacity="0.6"/>
    <path id="Tracé_247" data-name="Tracé 247" d="M-643.293-5574.594v-4.037h-4.036v4.037h-4.036v4.036h4.036v4.037h4.036v-4.037h4.036v-4.036Z" transform="translate(-190.447 -315.889)" fill="#ccc" opacity="0.8"/>
    <path id="Tracé_248" data-name="Tracé 248" d="M-691.178-5526.708v-4.036h-4.036v4.036h-4.036v4.036h4.036v4.036h4.036v-4.036h4.036v-4.036Z" transform="translate(-158.706 -347.63)" fill="#ccc" opacity="0.6"/>
    <path id="Tracé_249" data-name="Tracé 249" d="M-643.293-5526.708v-4.036h-4.036v4.036h-4.036v4.036h4.036v4.036h4.036v-4.036h4.036v-4.036Z" transform="translate(-190.447 -347.63)" fill="#ccc" opacity="0.8"/>
    <path id="Tracé_250" data-name="Tracé 250" d="M-691.178-5478.823v-4.036h-4.036v4.036h-4.036v4.036h4.036v4.036h4.036v-4.036h4.036v-4.036Z" transform="translate(-158.706 -379.371)" fill="#ccc" opacity="0.8"/>
    <path id="Tracé_251" data-name="Tracé 251" d="M-643.293-5478.823v-4.036h-4.036v4.036h-4.036v4.036h4.036v4.036h4.036v-4.036h4.036v-4.036Z" transform="translate(-190.447 -379.371)" fill="#ccc"/>
    <path id="Tracé_252" data-name="Tracé 252" d="M-691.178-5430.937v-4.036h-4.036v4.036h-4.036v4.036h4.036v4.036h4.036v-4.036h4.036v-4.036Z" transform="translate(-158.706 -411.112)" fill="#ccc" opacity="0.8"/>
    <path id="Tracé_253" data-name="Tracé 253" d="M-643.293-5430.937v-4.036h-4.036v4.036h-4.036v4.036h4.036v4.036h4.036v-4.036h4.036v-4.036Z" transform="translate(-190.447 -411.112)" fill="#ccc"/>
    <path id="Tracé_254" data-name="Tracé 254" d="M-691.178-5383.051v-4.036h-4.036v4.036h-4.036v4.036h4.036v4.036h4.036v-4.036h4.036v-4.036Z" transform="translate(-158.706 -442.853)" fill="#ccc" opacity="0.8"/>
    <path id="Tracé_255" data-name="Tracé 255" d="M-643.293-5383.051v-4.036h-4.036v4.036h-4.036v4.036h4.036v4.036h4.036v-4.036h4.036v-4.036Z" transform="translate(-190.447 -442.853)" fill="#ccc"/>
    <path id="Tracé_256" data-name="Tracé 256" d="M-930.607-5335.166v-4.036h-4.036v4.036h-4.036v4.036h4.036v4.037h4.036v-4.037h4.036v-4.036Z" transform="translate(0 -474.594)" fill="#ccc" opacity="0.2"/>
    <path id="Tracé_257" data-name="Tracé 257" d="M-882.721-5335.166v-4.036h-4.036v4.036h-4.036v4.036h4.036v4.037h4.036v-4.037h4.036v-4.036Z" transform="translate(-31.741 -474.594)" fill="#ccc" opacity="0.2"/>
    <path id="Tracé_258" data-name="Tracé 258" d="M-834.836-5335.166v-4.036h-4.036v4.036h-4.036v4.036h4.036v4.037h4.036v-4.037h4.036v-4.036Z" transform="translate(-63.482 -474.594)" fill="#ccc" opacity="0.4"/>
    <path id="Tracé_259" data-name="Tracé 259" d="M-786.95-5335.166v-4.036h-4.036v4.036h-4.036v4.036h4.036v4.037h4.036v-4.037h4.036v-4.036Z" transform="translate(-95.224 -474.594)" fill="#ccc" opacity="0.8"/>
    <path id="Tracé_260" data-name="Tracé 260" d="M-739.064-5335.166v-4.036H-743.1v4.036h-4.036v4.036h4.036v4.037h4.036v-4.037h4.036v-4.036Z" transform="translate(-126.965 -474.594)" fill="#ccc" opacity="0.8"/>
    <path id="Tracé_261" data-name="Tracé 261" d="M-930.607-5287.279v-4.037h-4.036v4.037h-4.036v4.036h4.036v4.037h4.036v-4.037h4.036v-4.036Z" transform="translate(0 -506.336)" fill="#ccc" opacity="0.2"/>
    <path id="Tracé_262" data-name="Tracé 262" d="M-882.721-5287.279v-4.037h-4.036v4.037h-4.036v4.036h4.036v4.037h4.036v-4.037h4.036v-4.036Z" transform="translate(-31.741 -506.336)" fill="#ccc" opacity="0.2"/>
    <path id="Tracé_263" data-name="Tracé 263" d="M-834.836-5287.279v-4.037h-4.036v4.037h-4.036v4.036h4.036v4.037h4.036v-4.037h4.036v-4.036Z" transform="translate(-63.482 -506.336)" fill="#ccc" opacity="0.4"/>
    <path id="Tracé_264" data-name="Tracé 264" d="M-786.95-5287.279v-4.037h-4.036v4.037h-4.036v4.036h4.036v4.037h4.036v-4.037h4.036v-4.036Z" transform="translate(-95.224 -506.336)" fill="#ccc" opacity="0.6"/>
    <path id="Tracé_265" data-name="Tracé 265" d="M-739.064-5287.279v-4.037H-743.1v4.037h-4.036v4.036h4.036v4.037h4.036v-4.037h4.036v-4.036Z" transform="translate(-126.965 -506.336)" fill="#ccc" opacity="0.8"/>
    <path id="Tracé_266" data-name="Tracé 266" d="M-930.607-5239.394v-4.036h-4.036v4.036h-4.036v4.036h4.036v4.036h4.036v-4.036h4.036v-4.036Z" transform="translate(0 -538.077)" fill="#ccc" opacity="0.2"/>
    <path id="Tracé_267" data-name="Tracé 267" d="M-882.721-5239.394v-4.036h-4.036v4.036h-4.036v4.036h4.036v4.036h4.036v-4.036h4.036v-4.036Z" transform="translate(-31.741 -538.077)" fill="#ccc" opacity="0.2"/>
    <path id="Tracé_268" data-name="Tracé 268" d="M-834.836-5239.394v-4.036h-4.036v4.036h-4.036v4.036h4.036v4.036h4.036v-4.036h4.036v-4.036Z" transform="translate(-63.482 -538.077)" fill="#ccc" opacity="0.4"/>
    <path id="Tracé_269" data-name="Tracé 269" d="M-786.95-5239.394v-4.036h-4.036v4.036h-4.036v4.036h4.036v4.036h4.036v-4.036h4.036v-4.036Z" transform="translate(-95.224 -538.077)" fill="#ccc" opacity="0.6"/>
    <path id="Tracé_270" data-name="Tracé 270" d="M-739.064-5239.394v-4.036H-743.1v4.036h-4.036v4.036h4.036v4.036h4.036v-4.036h4.036v-4.036Z" transform="translate(-126.965 -538.077)" fill="#ccc" opacity="0.8"/>
    <path id="Tracé_271" data-name="Tracé 271" d="M-691.178-5335.166v-4.036h-4.036v4.036h-4.036v4.036h4.036v4.037h4.036v-4.037h4.036v-4.036Z" transform="translate(-158.706 -474.594)" fill="#ccc" opacity="0.8"/>
    <path id="Tracé_272" data-name="Tracé 272" d="M-643.293-5335.166v-4.036h-4.036v4.036h-4.036v4.036h4.036v4.037h4.036v-4.037h4.036v-4.036Z" transform="translate(-190.447 -474.594)" fill="#ccc"/>
    <path id="Tracé_273" data-name="Tracé 273" d="M-691.178-5287.279v-4.037h-4.036v4.037h-4.036v4.036h4.036v4.037h4.036v-4.037h4.036v-4.036Z" transform="translate(-158.706 -506.336)" fill="#ccc" opacity="0.8"/>
    <path id="Tracé_274" data-name="Tracé 274" d="M-643.293-5287.279v-4.037h-4.036v4.037h-4.036v4.036h4.036v4.037h4.036v-4.037h4.036v-4.036Z" transform="translate(-190.447 -506.336)" fill="#ccc"/>
    <path id="Tracé_275" data-name="Tracé 275" d="M-691.178-5239.394v-4.036h-4.036v4.036h-4.036v4.036h4.036v4.036h4.036v-4.036h4.036v-4.036Z" transform="translate(-158.706 -538.077)" fill="#ccc" opacity="0.8"/>
    <path id="Tracé_276" data-name="Tracé 276" d="M-643.293-5239.394v-4.036h-4.036v4.036h-4.036v4.036h4.036v4.036h4.036v-4.036h4.036v-4.036Z" transform="translate(-190.447 -538.077)" fill="#ccc" opacity="0.8"/>
    <path id="Tracé_277" data-name="Tracé 277" d="M-595.407-5622.48v-4.036h-4.036v4.036h-4.036v4.036h4.036v4.036h4.036v-4.036h4.036v-4.036Z" transform="translate(-222.188 -284.147)" fill="#ccc"/>
    <path id="Tracé_278" data-name="Tracé 278" d="M-547.521-5622.48v-4.036h-4.036v4.036h-4.036v4.036h4.036v4.036h4.036v-4.036h4.036v-4.036Z" transform="translate(-253.929 -284.147)" fill="#ccc"/>
    <path id="Tracé_279" data-name="Tracé 279" d="M-499.635-5622.48v-4.036h-4.036v4.036h-4.036v4.036h4.036v4.036h4.036v-4.036h4.036v-4.036Z" transform="translate(-285.671 -284.147)" fill="#ccc"/>
    <path id="Tracé_280" data-name="Tracé 280" d="M-451.75-5622.48v-4.036h-4.036v4.036h-4.036v4.036h4.036v4.036h4.036v-4.036h4.036v-4.036Z" transform="translate(-317.412 -284.147)" fill="#ccc"/>
    <path id="Tracé_281" data-name="Tracé 281" d="M-403.864-5622.48v-4.036H-407.9v4.036h-4.036v4.036h4.036v4.036h4.036v-4.036h4.036v-4.036Z" transform="translate(-349.153 -284.147)" fill="#ccc"/>
    <path id="Tracé_282" data-name="Tracé 282" d="M-595.407-5574.594v-4.037h-4.036v4.037h-4.036v4.036h4.036v4.037h4.036v-4.037h4.036v-4.036Z" transform="translate(-222.188 -315.889)" fill="#ccc"/>
    <path id="Tracé_283" data-name="Tracé 283" d="M-547.521-5574.594v-4.037h-4.036v4.037h-4.036v4.036h4.036v4.037h4.036v-4.037h4.036v-4.036Z" transform="translate(-253.929 -315.889)" fill="#ccc"/>
    <path id="Tracé_284" data-name="Tracé 284" d="M-499.635-5574.594v-4.037h-4.036v4.037h-4.036v4.036h4.036v4.037h4.036v-4.037h4.036v-4.036Z" transform="translate(-285.671 -315.889)" fill="#ccc"/>
    <path id="Tracé_285" data-name="Tracé 285" d="M-451.75-5574.594v-4.037h-4.036v4.037h-4.036v4.036h4.036v4.037h4.036v-4.037h4.036v-4.036Z" transform="translate(-317.412 -315.889)" fill="#ccc"/>
    <path id="Tracé_286" data-name="Tracé 286" d="M-403.864-5574.594v-4.037H-407.9v4.037h-4.036v4.036h4.036v4.037h4.036v-4.037h4.036v-4.036Z" transform="translate(-349.153 -315.889)" fill="#ccc"/>
    <path id="Tracé_287" data-name="Tracé 287" d="M-595.407-5526.708v-4.036h-4.036v4.036h-4.036v4.036h4.036v4.036h4.036v-4.036h4.036v-4.036Z" transform="translate(-222.188 -347.63)" fill="#ccc"/>
    <path id="Tracé_288" data-name="Tracé 288" d="M-547.521-5526.708v-4.036h-4.036v4.036h-4.036v4.036h4.036v4.036h4.036v-4.036h4.036v-4.036Z" transform="translate(-253.929 -347.63)" fill="#ccc"/>
    <path id="Tracé_289" data-name="Tracé 289" d="M-499.635-5526.708v-4.036h-4.036v4.036h-4.036v4.036h4.036v4.036h4.036v-4.036h4.036v-4.036Z" transform="translate(-285.671 -347.63)" fill="#ccc"/>
    <path id="Tracé_290" data-name="Tracé 290" d="M-451.75-5526.708v-4.036h-4.036v4.036h-4.036v4.036h4.036v4.036h4.036v-4.036h4.036v-4.036Z" transform="translate(-317.412 -347.63)" fill="#ccc"/>
    <path id="Tracé_291" data-name="Tracé 291" d="M-403.864-5526.708v-4.036H-407.9v4.036h-4.036v4.036h4.036v4.036h4.036v-4.036h4.036v-4.036Z" transform="translate(-349.153 -347.63)" fill="#ccc"/>
    <path id="Tracé_292" data-name="Tracé 292" d="M-595.407-5478.823v-4.036h-4.036v4.036h-4.036v4.036h4.036v4.036h4.036v-4.036h4.036v-4.036Z" transform="translate(-222.188 -379.371)" fill="#ccc"/>
    <path id="Tracé_293" data-name="Tracé 293" d="M-547.521-5478.823v-4.036h-4.036v4.036h-4.036v4.036h4.036v4.036h4.036v-4.036h4.036v-4.036Z" transform="translate(-253.929 -379.371)" fill="#ccc"/>
    <path id="Tracé_294" data-name="Tracé 294" d="M-499.635-5478.823v-4.036h-4.036v4.036h-4.036v4.036h4.036v4.036h4.036v-4.036h4.036v-4.036Z" transform="translate(-285.671 -379.371)" fill="#ccc"/>
    <path id="Tracé_295" data-name="Tracé 295" d="M-451.75-5478.823v-4.036h-4.036v4.036h-4.036v4.036h4.036v4.036h4.036v-4.036h4.036v-4.036Z" transform="translate(-317.412 -379.371)" fill="#ccc"/>
    <path id="Tracé_296" data-name="Tracé 296" d="M-403.864-5478.823v-4.036H-407.9v4.036h-4.036v4.036h4.036v4.036h4.036v-4.036h4.036v-4.036Z" transform="translate(-349.153 -379.371)" fill="#ccc"/>
    <path id="Tracé_297" data-name="Tracé 297" d="M-595.407-5430.937v-4.036h-4.036v4.036h-4.036v4.036h4.036v4.036h4.036v-4.036h4.036v-4.036Z" transform="translate(-222.188 -411.112)" fill="#ccc"/>
    <path id="Tracé_298" data-name="Tracé 298" d="M-547.521-5430.937v-4.036h-4.036v4.036h-4.036v4.036h4.036v4.036h4.036v-4.036h4.036v-4.036Z" transform="translate(-253.929 -411.112)" fill="#ccc"/>
    <path id="Tracé_299" data-name="Tracé 299" d="M-499.635-5430.937v-4.036h-4.036v4.036h-4.036v4.036h4.036v4.036h4.036v-4.036h4.036v-4.036Z" transform="translate(-285.671 -411.112)" fill="#ccc"/>
    <path id="Tracé_300" data-name="Tracé 300" d="M-451.75-5430.937v-4.036h-4.036v4.036h-4.036v4.036h4.036v4.036h4.036v-4.036h4.036v-4.036Z" transform="translate(-317.412 -411.112)" fill="#ccc"/>
    <path id="Tracé_301" data-name="Tracé 301" d="M-403.864-5430.937v-4.036H-407.9v4.036h-4.036v4.036h4.036v4.036h4.036v-4.036h4.036v-4.036Z" transform="translate(-349.153 -411.112)" fill="#ccc"/>
    <path id="Tracé_302" data-name="Tracé 302" d="M-595.407-5383.051v-4.036h-4.036v4.036h-4.036v4.036h4.036v4.036h4.036v-4.036h4.036v-4.036Z" transform="translate(-222.188 -442.853)" fill="#ccc"/>
    <path id="Tracé_303" data-name="Tracé 303" d="M-547.521-5383.051v-4.036h-4.036v4.036h-4.036v4.036h4.036v4.036h4.036v-4.036h4.036v-4.036Z" transform="translate(-253.929 -442.853)" fill="#ccc"/>
    <path id="Tracé_304" data-name="Tracé 304" d="M-499.635-5383.051v-4.036h-4.036v4.036h-4.036v4.036h4.036v4.036h4.036v-4.036h4.036v-4.036Z" transform="translate(-285.671 -442.853)" fill="#ccc"/>
    <path id="Tracé_305" data-name="Tracé 305" d="M-451.75-5383.051v-4.036h-4.036v4.036h-4.036v4.036h4.036v4.036h4.036v-4.036h4.036v-4.036Z" transform="translate(-317.412 -442.853)" fill="#ccc"/>
    <path id="Tracé_306" data-name="Tracé 306" d="M-403.864-5383.051v-4.036H-407.9v4.036h-4.036v4.036h4.036v4.036h4.036v-4.036h4.036v-4.036Z" transform="translate(-349.153 -442.853)" fill="#ccc"/>
    <path id="Tracé_307" data-name="Tracé 307" d="M-355.978-5622.48v-4.036h-4.036v4.036h-4.036v4.036h4.036v4.036h4.036v-4.036h4.036v-4.036Z" transform="translate(-380.894 -284.147)" fill="#ccc"/>
    <path id="Tracé_308" data-name="Tracé 308" d="M-308.092-5622.48v-4.036h-4.036v4.036h-4.036v4.036h4.036v4.036h4.036v-4.036h4.036v-4.036Z" transform="translate(-412.635 -284.147)" fill="#ccc"/>
    <path id="Tracé_309" data-name="Tracé 309" d="M-355.978-5574.594v-4.037h-4.036v4.037h-4.036v4.036h4.036v4.037h4.036v-4.037h4.036v-4.036Z" transform="translate(-380.894 -315.889)" fill="#ccc"/>
    <path id="Tracé_310" data-name="Tracé 310" d="M-308.092-5574.594v-4.037h-4.036v4.037h-4.036v4.036h4.036v4.037h4.036v-4.037h4.036v-4.036Z" transform="translate(-412.635 -315.889)" fill="#ccc"/>
    <path id="Tracé_311" data-name="Tracé 311" d="M-355.978-5526.708v-4.036h-4.036v4.036h-4.036v4.036h4.036v4.036h4.036v-4.036h4.036v-4.036Z" transform="translate(-380.894 -347.63)" fill="#ccc"/>
    <path id="Tracé_312" data-name="Tracé 312" d="M-308.092-5526.708v-4.036h-4.036v4.036h-4.036v4.036h4.036v4.036h4.036v-4.036h4.036v-4.036Z" transform="translate(-412.635 -347.63)" fill="#ccc"/>
    <path id="Tracé_313" data-name="Tracé 313" d="M-355.978-5478.823v-4.036h-4.036v4.036h-4.036v4.036h4.036v4.036h4.036v-4.036h4.036v-4.036Z" transform="translate(-380.894 -379.371)" fill="#ccc"/>
    <path id="Tracé_314" data-name="Tracé 314" d="M-308.092-5478.823v-4.036h-4.036v4.036h-4.036v4.036h4.036v4.036h4.036v-4.036h4.036v-4.036Z" transform="translate(-412.635 -379.371)" fill="#ccc"/>
    <path id="Tracé_315" data-name="Tracé 315" d="M-355.978-5430.937v-4.036h-4.036v4.036h-4.036v4.036h4.036v4.036h4.036v-4.036h4.036v-4.036Z" transform="translate(-380.894 -411.112)" fill="#ccc"/>
    <path id="Tracé_316" data-name="Tracé 316" d="M-308.092-5430.937v-4.036h-4.036v4.036h-4.036v4.036h4.036v4.036h4.036v-4.036h4.036v-4.036Z" transform="translate(-412.635 -411.112)" fill="#ccc"/>
    <path id="Tracé_317" data-name="Tracé 317" d="M-355.978-5383.051v-4.036h-4.036v4.036h-4.036v4.036h4.036v4.036h4.036v-4.036h4.036v-4.036Z" transform="translate(-380.894 -442.853)" fill="#ccc"/>
    <path id="Tracé_318" data-name="Tracé 318" d="M-308.092-5383.051v-4.036h-4.036v4.036h-4.036v4.036h4.036v4.036h4.036v-4.036h4.036v-4.036Z" transform="translate(-412.635 -442.853)" fill="#ccc"/>
    <path id="Tracé_319" data-name="Tracé 319" d="M-595.407-5335.166v-4.036h-4.036v4.036h-4.036v4.036h4.036v4.037h4.036v-4.037h4.036v-4.036Z" transform="translate(-222.188 -474.594)" fill="#ccc"/>
    <path id="Tracé_320" data-name="Tracé 320" d="M-547.521-5335.166v-4.036h-4.036v4.036h-4.036v4.036h4.036v4.037h4.036v-4.037h4.036v-4.036Z" transform="translate(-253.929 -474.594)" fill="#ccc"/>
    <path id="Tracé_321" data-name="Tracé 321" d="M-499.635-5335.166v-4.036h-4.036v4.036h-4.036v4.036h4.036v4.037h4.036v-4.037h4.036v-4.036Z" transform="translate(-285.671 -474.594)" fill="#ccc"/>
    <path id="Tracé_322" data-name="Tracé 322" d="M-451.75-5335.166v-4.036h-4.036v4.036h-4.036v4.036h4.036v4.037h4.036v-4.037h4.036v-4.036Z" transform="translate(-317.412 -474.594)" fill="#ccc"/>
    <path id="Tracé_323" data-name="Tracé 323" d="M-403.864-5335.166v-4.036H-407.9v4.036h-4.036v4.036h4.036v4.037h4.036v-4.037h4.036v-4.036Z" transform="translate(-349.153 -474.594)" fill="#ccc"/>
    <path id="Tracé_324" data-name="Tracé 324" d="M-595.407-5287.279v-4.037h-4.036v4.037h-4.036v4.036h4.036v4.037h4.036v-4.037h4.036v-4.036Z" transform="translate(-222.188 -506.336)" fill="#ccc"/>
    <path id="Tracé_325" data-name="Tracé 325" d="M-547.521-5287.279v-4.037h-4.036v4.037h-4.036v4.036h4.036v4.037h4.036v-4.037h4.036v-4.036Z" transform="translate(-253.929 -506.336)" fill="#ccc"/>
    <path id="Tracé_326" data-name="Tracé 326" d="M-499.635-5287.279v-4.037h-4.036v4.037h-4.036v4.036h4.036v4.037h4.036v-4.037h4.036v-4.036Z" transform="translate(-285.671 -506.336)" fill="#ccc"/>
    <path id="Tracé_327" data-name="Tracé 327" d="M-451.75-5287.279v-4.037h-4.036v4.037h-4.036v4.036h4.036v4.037h4.036v-4.037h4.036v-4.036Z" transform="translate(-317.412 -506.336)" fill="#ccc"/>
    <path id="Tracé_328" data-name="Tracé 328" d="M-403.864-5287.279v-4.037H-407.9v4.037h-4.036v4.036h4.036v4.037h4.036v-4.037h4.036v-4.036Z" transform="translate(-349.153 -506.336)" fill="#ccc"/>
    <path id="Tracé_329" data-name="Tracé 329" d="M-595.407-5239.394v-4.036h-4.036v4.036h-4.036v4.036h4.036v4.036h4.036v-4.036h4.036v-4.036Z" transform="translate(-222.188 -538.077)" fill="#ccc"/>
    <path id="Tracé_330" data-name="Tracé 330" d="M-547.521-5239.394v-4.036h-4.036v4.036h-4.036v4.036h4.036v4.036h4.036v-4.036h4.036v-4.036Z" transform="translate(-253.929 -538.077)" fill="#ccc"/>
    <path id="Tracé_331" data-name="Tracé 331" d="M-499.635-5239.394v-4.036h-4.036v4.036h-4.036v4.036h4.036v4.036h4.036v-4.036h4.036v-4.036Z" transform="translate(-285.671 -538.077)" fill="#ccc"/>
    <path id="Tracé_332" data-name="Tracé 332" d="M-451.75-5239.394v-4.036h-4.036v4.036h-4.036v4.036h4.036v4.036h4.036v-4.036h4.036v-4.036Z" transform="translate(-317.412 -538.077)" fill="#ccc"/>
    <path id="Tracé_333" data-name="Tracé 333" d="M-403.864-5239.394v-4.036H-407.9v4.036h-4.036v4.036h4.036v4.036h4.036v-4.036h4.036v-4.036Z" transform="translate(-349.153 -538.077)" fill="#ccc"/>
    <path id="Tracé_334" data-name="Tracé 334" d="M-355.978-5335.166v-4.036h-4.036v4.036h-4.036v4.036h4.036v4.037h4.036v-4.037h4.036v-4.036Z" transform="translate(-380.894 -474.594)" fill="#ccc"/>
    <path id="Tracé_335" data-name="Tracé 335" d="M-308.092-5335.166v-4.036h-4.036v4.036h-4.036v4.036h4.036v4.037h4.036v-4.037h4.036v-4.036Z" transform="translate(-412.635 -474.594)" fill="#ccc"/>
    <path id="Tracé_336" data-name="Tracé 336" d="M-355.978-5287.279v-4.037h-4.036v4.037h-4.036v4.036h4.036v4.037h4.036v-4.037h4.036v-4.036Z" transform="translate(-380.894 -506.336)" fill="#ccc"/>
    <path id="Tracé_337" data-name="Tracé 337" d="M-308.092-5287.279v-4.037h-4.036v4.037h-4.036v4.036h4.036v4.037h4.036v-4.037h4.036v-4.036Z" transform="translate(-412.635 -506.336)" fill="#ccc" opacity="0.8"/>
    <path id="Tracé_338" data-name="Tracé 338" d="M-355.978-5239.394v-4.036h-4.036v4.036h-4.036v4.036h4.036v4.036h4.036v-4.036h4.036v-4.036Z" transform="translate(-380.894 -538.077)" fill="#ccc"/>
    <path id="Tracé_339" data-name="Tracé 339" d="M-308.092-5239.394v-4.036h-4.036v4.036h-4.036v4.036h4.036v4.036h4.036v-4.036h4.036v-4.036Z" transform="translate(-412.635 -538.077)" fill="#ccc" opacity="0.8"/>
    <path id="Tracé_340" data-name="Tracé 340" d="M-260.207-5622.48v-4.036h-4.036v4.036h-4.036v4.036h4.036v4.036h4.036v-4.036h4.036v-4.036Z" transform="translate(-444.376 -284.147)" fill="#ccc" opacity="0.8"/>
    <path id="Tracé_341" data-name="Tracé 341" d="M-212.321-5622.48v-4.036h-4.036v4.036h-4.036v4.036h4.036v4.036h4.036v-4.036h4.036v-4.036Z" transform="translate(-476.118 -284.147)" fill="#ccc" opacity="0.8"/>
    <path id="Tracé_342" data-name="Tracé 342" d="M-164.435-5622.48v-4.036h-4.036v4.036h-4.036v4.036h4.036v4.036h4.036v-4.036h4.036v-4.036Z" transform="translate(-507.859 -284.147)" fill="#ccc" opacity="0.6"/>
    <path id="Tracé_343" data-name="Tracé 343" d="M-116.549-5622.48v-4.036h-4.036v4.036h-4.036v4.036h4.036v4.036h4.036v-4.036h4.036v-4.036Z" transform="translate(-539.6 -284.147)" fill="#ccc" opacity="0.6"/>
    <path id="Tracé_344" data-name="Tracé 344" d="M-68.664-5622.48v-4.036H-72.7v4.036h-4.036v4.036H-72.7v4.036h4.036v-4.036h4.036v-4.036Z" transform="translate(-571.341 -284.147)" fill="#ccc" opacity="0.4"/>
    <path id="Tracé_345" data-name="Tracé 345" d="M-260.207-5574.594v-4.037h-4.036v4.037h-4.036v4.036h4.036v4.037h4.036v-4.037h4.036v-4.036Z" transform="translate(-444.376 -315.889)" fill="#ccc"/>
    <path id="Tracé_346" data-name="Tracé 346" d="M-212.321-5574.594v-4.037h-4.036v4.037h-4.036v4.036h4.036v4.037h4.036v-4.037h4.036v-4.036Z" transform="translate(-476.118 -315.889)" fill="#ccc" opacity="0.8"/>
    <path id="Tracé_347" data-name="Tracé 347" d="M-164.435-5574.594v-4.037h-4.036v4.037h-4.036v4.036h4.036v4.037h4.036v-4.037h4.036v-4.036Z" transform="translate(-507.859 -315.889)" fill="#ccc" opacity="0.6"/>
    <path id="Tracé_348" data-name="Tracé 348" d="M-116.549-5574.594v-4.037h-4.036v4.037h-4.036v4.036h4.036v4.037h4.036v-4.037h4.036v-4.036Z" transform="translate(-539.6 -315.889)" fill="#ccc" opacity="0.6"/>
    <path id="Tracé_349" data-name="Tracé 349" d="M-68.664-5574.594v-4.037H-72.7v4.037h-4.036v4.036H-72.7v4.037h4.036v-4.037h4.036v-4.036Z" transform="translate(-571.341 -315.889)" fill="#ccc" opacity="0.4"/>
    <path id="Tracé_350" data-name="Tracé 350" d="M-260.207-5526.708v-4.036h-4.036v4.036h-4.036v4.036h4.036v4.036h4.036v-4.036h4.036v-4.036Z" transform="translate(-444.376 -347.63)" fill="#ccc"/>
    <path id="Tracé_351" data-name="Tracé 351" d="M-212.321-5526.708v-4.036h-4.036v4.036h-4.036v4.036h4.036v4.036h4.036v-4.036h4.036v-4.036Z" transform="translate(-476.118 -347.63)" fill="#ccc" opacity="0.8"/>
    <path id="Tracé_352" data-name="Tracé 352" d="M-164.435-5526.708v-4.036h-4.036v4.036h-4.036v4.036h4.036v4.036h4.036v-4.036h4.036v-4.036Z" transform="translate(-507.859 -347.63)" fill="#ccc" opacity="0.6"/>
    <path id="Tracé_353" data-name="Tracé 353" d="M-116.549-5526.708v-4.036h-4.036v4.036h-4.036v4.036h4.036v4.036h4.036v-4.036h4.036v-4.036Z" transform="translate(-539.6 -347.63)" fill="#ccc" opacity="0.6"/>
    <path id="Tracé_354" data-name="Tracé 354" d="M-68.664-5526.708v-4.036H-72.7v4.036h-4.036v4.036H-72.7v4.036h4.036v-4.036h4.036v-4.036Z" transform="translate(-571.341 -347.63)" fill="#ccc" opacity="0.4"/>
    <path id="Tracé_355" data-name="Tracé 355" d="M-260.207-5478.823v-4.036h-4.036v4.036h-4.036v4.036h4.036v4.036h4.036v-4.036h4.036v-4.036Z" transform="translate(-444.376 -379.371)" fill="#ccc"/>
    <path id="Tracé_356" data-name="Tracé 356" d="M-212.321-5478.823v-4.036h-4.036v4.036h-4.036v4.036h4.036v4.036h4.036v-4.036h4.036v-4.036Z" transform="translate(-476.118 -379.371)" fill="#ccc" opacity="0.8"/>
    <path id="Tracé_357" data-name="Tracé 357" d="M-164.435-5478.823v-4.036h-4.036v4.036h-4.036v4.036h4.036v4.036h4.036v-4.036h4.036v-4.036Z" transform="translate(-507.859 -379.371)" fill="#ccc" opacity="0.6"/>
    <path id="Tracé_358" data-name="Tracé 358" d="M-116.549-5478.823v-4.036h-4.036v4.036h-4.036v4.036h4.036v4.036h4.036v-4.036h4.036v-4.036Z" transform="translate(-539.6 -379.371)" fill="#ccc" opacity="0.6"/>
    <path id="Tracé_359" data-name="Tracé 359" d="M-68.664-5478.823v-4.036H-72.7v4.036h-4.036v4.036H-72.7v4.036h4.036v-4.036h4.036v-4.036Z" transform="translate(-571.341 -379.371)" fill="#ccc" opacity="0.6"/>
    <path id="Tracé_360" data-name="Tracé 360" d="M-260.207-5430.937v-4.036h-4.036v4.036h-4.036v4.036h4.036v4.036h4.036v-4.036h4.036v-4.036Z" transform="translate(-444.376 -411.112)" fill="#ccc" opacity="0.8"/>
    <path id="Tracé_361" data-name="Tracé 361" d="M-212.321-5430.937v-4.036h-4.036v4.036h-4.036v4.036h4.036v4.036h4.036v-4.036h4.036v-4.036Z" transform="translate(-476.118 -411.112)" fill="#ccc" opacity="0.8"/>
    <path id="Tracé_362" data-name="Tracé 362" d="M-164.435-5430.937v-4.036h-4.036v4.036h-4.036v4.036h4.036v4.036h4.036v-4.036h4.036v-4.036Z" transform="translate(-507.859 -411.112)" fill="#ccc" opacity="0.8"/>
    <path id="Tracé_363" data-name="Tracé 363" d="M-116.549-5430.937v-4.036h-4.036v4.036h-4.036v4.036h4.036v4.036h4.036v-4.036h4.036v-4.036Z" transform="translate(-539.6 -411.112)" fill="#ccc" opacity="0.6"/>
    <path id="Tracé_364" data-name="Tracé 364" d="M-68.664-5430.937v-4.036H-72.7v4.036h-4.036v4.036H-72.7v4.036h4.036v-4.036h4.036v-4.036Z" transform="translate(-571.341 -411.112)" fill="#ccc" opacity="0.6"/>
    <path id="Tracé_365" data-name="Tracé 365" d="M-260.207-5383.051v-4.036h-4.036v4.036h-4.036v4.036h4.036v4.036h4.036v-4.036h4.036v-4.036Z" transform="translate(-444.376 -442.853)" fill="#ccc" opacity="0.8"/>
    <path id="Tracé_366" data-name="Tracé 366" d="M-212.321-5383.051v-4.036h-4.036v4.036h-4.036v4.036h4.036v4.036h4.036v-4.036h4.036v-4.036Z" transform="translate(-476.118 -442.853)" fill="#ccc" opacity="0.8"/>
    <path id="Tracé_367" data-name="Tracé 367" d="M-164.435-5383.051v-4.036h-4.036v4.036h-4.036v4.036h4.036v4.036h4.036v-4.036h4.036v-4.036Z" transform="translate(-507.859 -442.853)" fill="#ccc" opacity="0.8"/>
    <path id="Tracé_368" data-name="Tracé 368" d="M-116.549-5383.051v-4.036h-4.036v4.036h-4.036v4.036h4.036v4.036h4.036v-4.036h4.036v-4.036Z" transform="translate(-539.6 -442.853)" fill="#ccc" opacity="0.6"/>
    <path id="Tracé_369" data-name="Tracé 369" d="M-68.664-5383.051v-4.036H-72.7v4.036h-4.036v4.036H-72.7v4.036h4.036v-4.036h4.036v-4.036Z" transform="translate(-571.341 -442.853)" fill="#ccc" opacity="0.6"/>
    <path id="Tracé_370" data-name="Tracé 370" d="M-20.778-5622.48v-4.036h-4.036v4.036H-28.85v4.036h4.036v4.036h4.036v-4.036h4.036v-4.036Z" transform="translate(-603.082 -284.147)" fill="#ccc" opacity="0.4"/>
    <path id="Tracé_371" data-name="Tracé 371" d="M27.108-5622.48v-4.036H23.072v4.036H19.035v4.036h4.036v4.036h4.036v-4.036h4.036v-4.036Z" transform="translate(-634.823 -284.147)" fill="#ccc" opacity="0.2"/>
    <path id="Tracé_372" data-name="Tracé 372" d="M-20.778-5574.594v-4.037h-4.036v4.037H-28.85v4.036h4.036v4.037h4.036v-4.037h4.036v-4.036Z" transform="translate(-603.082 -315.889)" fill="#ccc" opacity="0.4"/>
    <path id="Tracé_373" data-name="Tracé 373" d="M27.108-5574.594v-4.037H23.072v4.037H19.035v4.036h4.036v4.037h4.036v-4.037h4.036v-4.036Z" transform="translate(-634.823 -315.889)" fill="#ccc" opacity="0.2"/>
    <path id="Tracé_374" data-name="Tracé 374" d="M-20.778-5526.708v-4.036h-4.036v4.036H-28.85v4.036h4.036v4.036h4.036v-4.036h4.036v-4.036Z" transform="translate(-603.082 -347.63)" fill="#ccc" opacity="0.4"/>
    <path id="Tracé_375" data-name="Tracé 375" d="M27.108-5526.708v-4.036H23.072v4.036H19.035v4.036h4.036v4.036h4.036v-4.036h4.036v-4.036Z" transform="translate(-634.823 -347.63)" fill="#ccc" opacity="0.2"/>
    <path id="Tracé_376" data-name="Tracé 376" d="M-20.778-5478.823v-4.036h-4.036v4.036H-28.85v4.036h4.036v4.036h4.036v-4.036h4.036v-4.036Z" transform="translate(-603.082 -379.371)" fill="#ccc" opacity="0.4"/>
    <path id="Tracé_377" data-name="Tracé 377" d="M27.108-5478.823v-4.036H23.072v4.036H19.035v4.036h4.036v4.036h4.036v-4.036h4.036v-4.036Z" transform="translate(-634.823 -379.371)" fill="#ccc" opacity="0.2"/>
    <path id="Tracé_378" data-name="Tracé 378" d="M-20.778-5430.937v-4.036h-4.036v4.036H-28.85v4.036h4.036v4.036h4.036v-4.036h4.036v-4.036Z" transform="translate(-603.082 -411.112)" fill="#ccc" opacity="0.4"/>
    <path id="Tracé_379" data-name="Tracé 379" d="M27.108-5430.937v-4.036H23.072v4.036H19.035v4.036h4.036v4.036h4.036v-4.036h4.036v-4.036Z" transform="translate(-634.823 -411.112)" fill="#ccc" opacity="0.2"/>
    <path id="Tracé_380" data-name="Tracé 380" d="M-20.778-5383.051v-4.036h-4.036v4.036H-28.85v4.036h4.036v4.036h4.036v-4.036h4.036v-4.036Z" transform="translate(-603.082 -442.853)" fill="#ccc" opacity="0.4"/>
    <path id="Tracé_381" data-name="Tracé 381" d="M27.108-5383.051v-4.036H23.072v4.036H19.035v4.036h4.036v4.036h4.036v-4.036h4.036v-4.036Z" transform="translate(-634.823 -442.853)" fill="#ccc" opacity="0.2"/>
    <path id="Tracé_382" data-name="Tracé 382" d="M-260.207-5335.166v-4.036h-4.036v4.036h-4.036v4.036h4.036v4.037h4.036v-4.037h4.036v-4.036Z" transform="translate(-444.376 -474.594)" fill="#ccc" opacity="0.8"/>
    <path id="Tracé_383" data-name="Tracé 383" d="M-212.321-5335.166v-4.036h-4.036v4.036h-4.036v4.036h4.036v4.037h4.036v-4.037h4.036v-4.036Z" transform="translate(-476.118 -474.594)" fill="#ccc" opacity="0.8"/>
    <path id="Tracé_384" data-name="Tracé 384" d="M-164.435-5335.166v-4.036h-4.036v4.036h-4.036v4.036h4.036v4.037h4.036v-4.037h4.036v-4.036Z" transform="translate(-507.859 -474.594)" fill="#ccc" opacity="0.6"/>
    <path id="Tracé_385" data-name="Tracé 385" d="M-116.549-5335.166v-4.036h-4.036v4.036h-4.036v4.036h4.036v4.037h4.036v-4.037h4.036v-4.036Z" transform="translate(-539.6 -474.594)" fill="#ccc" opacity="0.6"/>
    <path id="Tracé_386" data-name="Tracé 386" d="M-68.664-5335.166v-4.036H-72.7v4.036h-4.036v4.036H-72.7v4.037h4.036v-4.037h4.036v-4.036Z" transform="translate(-571.341 -474.594)" fill="#ccc" opacity="0.6"/>
    <path id="Tracé_387" data-name="Tracé 387" d="M-260.207-5287.279v-4.037h-4.036v4.037h-4.036v4.036h4.036v4.037h4.036v-4.037h4.036v-4.036Z" transform="translate(-444.376 -506.336)" fill="#ccc" opacity="0.8"/>
    <path id="Tracé_388" data-name="Tracé 388" d="M-212.321-5287.279v-4.037h-4.036v4.037h-4.036v4.036h4.036v4.037h4.036v-4.037h4.036v-4.036Z" transform="translate(-476.118 -506.336)" fill="#ccc" opacity="0.8"/>
    <path id="Tracé_389" data-name="Tracé 389" d="M-164.435-5287.279v-4.037h-4.036v4.037h-4.036v4.036h4.036v4.037h4.036v-4.037h4.036v-4.036Z" transform="translate(-507.859 -506.336)" fill="#ccc" opacity="0.6"/>
    <path id="Tracé_390" data-name="Tracé 390" d="M-116.549-5287.279v-4.037h-4.036v4.037h-4.036v4.036h4.036v4.037h4.036v-4.037h4.036v-4.036Z" transform="translate(-539.6 -506.336)" fill="#ccc" opacity="0.6"/>
    <path id="Tracé_391" data-name="Tracé 391" d="M-68.664-5287.279v-4.037H-72.7v4.037h-4.036v4.036H-72.7v4.037h4.036v-4.037h4.036v-4.036Z" transform="translate(-571.341 -506.336)" fill="#ccc" opacity="0.6"/>
    <path id="Tracé_392" data-name="Tracé 392" d="M-260.207-5239.394v-4.036h-4.036v4.036h-4.036v4.036h4.036v4.036h4.036v-4.036h4.036v-4.036Z" transform="translate(-444.376 -538.077)" fill="#ccc" opacity="0.8"/>
    <path id="Tracé_393" data-name="Tracé 393" d="M-212.321-5239.394v-4.036h-4.036v4.036h-4.036v4.036h4.036v4.036h4.036v-4.036h4.036v-4.036Z" transform="translate(-476.118 -538.077)" fill="#ccc" opacity="0.6"/>
    <path id="Tracé_394" data-name="Tracé 394" d="M-164.435-5239.394v-4.036h-4.036v4.036h-4.036v4.036h4.036v4.036h4.036v-4.036h4.036v-4.036Z" transform="translate(-507.859 -538.077)" fill="#ccc" opacity="0.6"/>
    <path id="Tracé_395" data-name="Tracé 395" d="M-116.549-5239.394v-4.036h-4.036v4.036h-4.036v4.036h4.036v4.036h4.036v-4.036h4.036v-4.036Z" transform="translate(-539.6 -538.077)" fill="#ccc" opacity="0.4"/>
    <path id="Tracé_396" data-name="Tracé 396" d="M-68.664-5239.394v-4.036H-72.7v4.036h-4.036v4.036H-72.7v4.036h4.036v-4.036h4.036v-4.036Z" transform="translate(-571.341 -538.077)" fill="#ccc" opacity="0.4"/>
    <path id="Tracé_397" data-name="Tracé 397" d="M-20.778-5335.166v-4.036h-4.036v4.036H-28.85v4.036h4.036v4.037h4.036v-4.037h4.036v-4.036Z" transform="translate(-603.082 -474.594)" fill="#ccc" opacity="0.4"/>
    <path id="Tracé_398" data-name="Tracé 398" d="M27.108-5335.166v-4.036H23.072v4.036H19.035v4.036h4.036v4.037h4.036v-4.037h4.036v-4.036Z" transform="translate(-634.823 -474.594)" fill="#ccc" opacity="0.2"/>
    <path id="Tracé_399" data-name="Tracé 399" d="M-20.778-5287.279v-4.037h-4.036v4.037H-28.85v4.036h4.036v4.037h4.036v-4.037h4.036v-4.036Z" transform="translate(-603.082 -506.336)" fill="#ccc" opacity="0.4"/>
    <path id="Tracé_400" data-name="Tracé 400" d="M27.108-5287.279v-4.037H23.072v4.037H19.035v4.036h4.036v4.037h4.036v-4.037h4.036v-4.036Z" transform="translate(-634.823 -506.336)" fill="#ccc" opacity="0.2"/>
    <path id="Tracé_401" data-name="Tracé 401" d="M-20.778-5239.394v-4.036h-4.036v4.036H-28.85v4.036h4.036v4.036h4.036v-4.036h4.036v-4.036Z" transform="translate(-603.082 -538.077)" fill="#ccc" opacity="0.2"/>
    <path id="Tracé_402" data-name="Tracé 402" d="M27.108-5239.394v-4.036H23.072v4.036H19.035v4.036h4.036v4.036h4.036v-4.036h4.036v-4.036Z" transform="translate(-634.823 -538.077)" fill="#ccc" opacity="0.2"/>
    <path id="Tracé_403" data-name="Tracé 403" d="M-882.721-5191.508v-4.036h-4.036v4.036h-4.036v4.036h4.036v4.036h4.036v-4.036h4.036v-4.036Z" transform="translate(-31.741 -569.818)" fill="#ccc" opacity="0.2"/>
    <path id="Tracé_404" data-name="Tracé 404" d="M-834.836-5191.508v-4.036h-4.036v4.036h-4.036v4.036h4.036v4.036h4.036v-4.036h4.036v-4.036Z" transform="translate(-63.482 -569.818)" fill="#ccc" opacity="0.4"/>
    <path id="Tracé_405" data-name="Tracé 405" d="M-786.95-5191.508v-4.036h-4.036v4.036h-4.036v4.036h4.036v4.036h4.036v-4.036h4.036v-4.036Z" transform="translate(-95.224 -569.818)" fill="#ccc" opacity="0.6"/>
    <path id="Tracé_406" data-name="Tracé 406" d="M-739.064-5191.508v-4.036H-743.1v4.036h-4.036v4.036h4.036v4.036h4.036v-4.036h4.036v-4.036Z" transform="translate(-126.965 -569.818)" fill="#ccc" opacity="0.6"/>
    <path id="Tracé_407" data-name="Tracé 407" d="M-882.721-5143.623v-4.036h-4.036v4.036h-4.036v4.036h4.036v4.036h4.036v-4.036h4.036v-4.036Z" transform="translate(-31.741 -601.559)" fill="#ccc" opacity="0.2"/>
    <path id="Tracé_408" data-name="Tracé 408" d="M-834.836-5143.623v-4.036h-4.036v4.036h-4.036v4.036h4.036v4.036h4.036v-4.036h4.036v-4.036Z" transform="translate(-63.482 -601.559)" fill="#ccc" opacity="0.4"/>
    <path id="Tracé_409" data-name="Tracé 409" d="M-786.95-5143.623v-4.036h-4.036v4.036h-4.036v4.036h4.036v4.036h4.036v-4.036h4.036v-4.036Z" transform="translate(-95.224 -601.559)" fill="#ccc" opacity="0.4"/>
    <path id="Tracé_410" data-name="Tracé 410" d="M-739.064-5143.623v-4.036H-743.1v4.036h-4.036v4.036h4.036v4.036h4.036v-4.036h4.036v-4.036Z" transform="translate(-126.965 -601.559)" fill="#ccc" opacity="0.6"/>
    <path id="Tracé_411" data-name="Tracé 411" d="M-882.721-5095.737v-4.036h-4.036v4.036h-4.036v4.036h4.036v4.036h4.036v-4.036h4.036v-4.036Z" transform="translate(-31.741 -633.3)" fill="#ccc" opacity="0.2"/>
    <path id="Tracé_412" data-name="Tracé 412" d="M-834.836-5095.737v-4.036h-4.036v4.036h-4.036v4.036h4.036v4.036h4.036v-4.036h4.036v-4.036Z" transform="translate(-63.482 -633.3)" fill="#ccc" opacity="0.4"/>
    <path id="Tracé_413" data-name="Tracé 413" d="M-786.95-5095.737v-4.036h-4.036v4.036h-4.036v4.036h4.036v4.036h4.036v-4.036h4.036v-4.036Z" transform="translate(-95.224 -633.3)" fill="#ccc" opacity="0.4"/>
    <path id="Tracé_414" data-name="Tracé 414" d="M-739.064-5095.737v-4.036H-743.1v4.036h-4.036v4.036h4.036v4.036h4.036v-4.036h4.036v-4.036Z" transform="translate(-126.965 -633.3)" fill="#ccc" opacity="0.6"/>
    <path id="Tracé_415" data-name="Tracé 415" d="M-882.721-5047.851v-4.037h-4.036v4.037h-4.036v4.036h4.036v4.037h4.036v-4.037h4.036v-4.036Z" transform="translate(-31.741 -665.041)" fill="#ccc" opacity="0.2"/>
    <path id="Tracé_416" data-name="Tracé 416" d="M-834.836-5047.851v-4.037h-4.036v4.037h-4.036v4.036h4.036v4.037h4.036v-4.037h4.036v-4.036Z" transform="translate(-63.482 -665.041)" fill="#ccc" opacity="0.4"/>
    <path id="Tracé_417" data-name="Tracé 417" d="M-786.95-5047.851v-4.037h-4.036v4.037h-4.036v4.036h4.036v4.037h4.036v-4.037h4.036v-4.036Z" transform="translate(-95.224 -665.041)" fill="#ccc" opacity="0.4"/>
    <path id="Tracé_418" data-name="Tracé 418" d="M-739.064-5047.851v-4.037H-743.1v4.037h-4.036v4.036h4.036v4.037h4.036v-4.037h4.036v-4.036Z" transform="translate(-126.965 -665.041)" fill="#ccc" opacity="0.6"/>
    <path id="Tracé_419" data-name="Tracé 419" d="M-834.836-4999.965V-5004h-4.036v4.037h-4.036v4.036h4.036v4.037h4.036v-4.037h4.036v-4.036Z" transform="translate(-63.482 -696.783)" fill="#ccc" opacity="0.2"/>
    <path id="Tracé_420" data-name="Tracé 420" d="M-786.95-4999.965V-5004h-4.036v4.037h-4.036v4.036h4.036v4.037h4.036v-4.037h4.036v-4.036Z" transform="translate(-95.224 -696.783)" fill="#ccc" opacity="0.4"/>
    <path id="Tracé_421" data-name="Tracé 421" d="M-739.064-4999.965V-5004H-743.1v4.037h-4.036v4.036h4.036v4.037h4.036v-4.037h4.036v-4.036Z" transform="translate(-126.965 -696.783)" fill="#ccc" opacity="0.6"/>
    <path id="Tracé_422" data-name="Tracé 422" d="M-834.836-4952.08v-4.036h-4.036v4.036h-4.036v4.036h4.036v4.036h4.036v-4.036h4.036v-4.036Z" transform="translate(-63.482 -728.524)" fill="#ccc" opacity="0.2"/>
    <path id="Tracé_423" data-name="Tracé 423" d="M-786.95-4952.08v-4.036h-4.036v4.036h-4.036v4.036h4.036v4.036h4.036v-4.036h4.036v-4.036Z" transform="translate(-95.224 -728.524)" fill="#ccc" opacity="0.4"/>
    <path id="Tracé_424" data-name="Tracé 424" d="M-739.064-4952.08v-4.036H-743.1v4.036h-4.036v4.036h4.036v4.036h4.036v-4.036h4.036v-4.036Z" transform="translate(-126.965 -728.524)" fill="#ccc" opacity="0.6"/>
    <path id="Tracé_425" data-name="Tracé 425" d="M-691.178-5191.508v-4.036h-4.036v4.036h-4.036v4.036h4.036v4.036h4.036v-4.036h4.036v-4.036Z" transform="translate(-158.706 -569.818)" fill="#ccc" opacity="0.8"/>
    <path id="Tracé_426" data-name="Tracé 426" d="M-643.293-5191.508v-4.036h-4.036v4.036h-4.036v4.036h4.036v4.036h4.036v-4.036h4.036v-4.036Z" transform="translate(-190.447 -569.818)" fill="#ccc" opacity="0.8"/>
    <path id="Tracé_427" data-name="Tracé 427" d="M-691.178-5143.623v-4.036h-4.036v4.036h-4.036v4.036h4.036v4.036h4.036v-4.036h4.036v-4.036Z" transform="translate(-158.706 -601.559)" fill="#ccc" opacity="0.6"/>
    <path id="Tracé_428" data-name="Tracé 428" d="M-643.293-5143.623v-4.036h-4.036v4.036h-4.036v4.036h4.036v4.036h4.036v-4.036h4.036v-4.036Z" transform="translate(-190.447 -601.559)" fill="#ccc" opacity="0.8"/>
    <path id="Tracé_429" data-name="Tracé 429" d="M-691.178-5095.737v-4.036h-4.036v4.036h-4.036v4.036h4.036v4.036h4.036v-4.036h4.036v-4.036Z" transform="translate(-158.706 -633.3)" fill="#ccc" opacity="0.6"/>
    <path id="Tracé_430" data-name="Tracé 430" d="M-643.293-5095.737v-4.036h-4.036v4.036h-4.036v4.036h4.036v4.036h4.036v-4.036h4.036v-4.036Z" transform="translate(-190.447 -633.3)" fill="#ccc" opacity="0.8"/>
    <path id="Tracé_431" data-name="Tracé 431" d="M-691.178-5047.851v-4.037h-4.036v4.037h-4.036v4.036h4.036v4.037h4.036v-4.037h4.036v-4.036Z" transform="translate(-158.706 -665.041)" fill="#ccc" opacity="0.6"/>
    <path id="Tracé_432" data-name="Tracé 432" d="M-643.293-5047.851v-4.037h-4.036v4.037h-4.036v4.036h4.036v4.037h4.036v-4.037h4.036v-4.036Z" transform="translate(-190.447 -665.041)" fill="#ccc" opacity="0.8"/>
    <path id="Tracé_433" data-name="Tracé 433" d="M-691.178-4999.965V-5004h-4.036v4.037h-4.036v4.036h4.036v4.037h4.036v-4.037h4.036v-4.036Z" transform="translate(-158.706 -696.783)" fill="#ccc" opacity="0.6"/>
    <path id="Tracé_434" data-name="Tracé 434" d="M-643.293-4999.965V-5004h-4.036v4.037h-4.036v4.036h4.036v4.037h4.036v-4.037h4.036v-4.036Z" transform="translate(-190.447 -696.783)" fill="#ccc" opacity="0.6"/>
    <path id="Tracé_435" data-name="Tracé 435" d="M-691.178-4952.08v-4.036h-4.036v4.036h-4.036v4.036h4.036v4.036h4.036v-4.036h4.036v-4.036Z" transform="translate(-158.706 -728.524)" fill="#ccc" opacity="0.6"/>
    <path id="Tracé_436" data-name="Tracé 436" d="M-643.293-4952.08v-4.036h-4.036v4.036h-4.036v4.036h4.036v4.036h4.036v-4.036h4.036v-4.036Z" transform="translate(-190.447 -728.524)" fill="#ccc" opacity="0.6"/>
    <path id="Tracé_437" data-name="Tracé 437" d="M-834.836-4904.194v-4.036h-4.036v4.036h-4.036v4.036h4.036v4.036h4.036v-4.036h4.036v-4.036Z" transform="translate(-63.482 -760.265)" fill="#ccc" opacity="0.2"/>
    <path id="Tracé_438" data-name="Tracé 438" d="M-786.95-4904.194v-4.036h-4.036v4.036h-4.036v4.036h4.036v4.036h4.036v-4.036h4.036v-4.036Z" transform="translate(-95.224 -760.265)" fill="#ccc" opacity="0.2"/>
    <path id="Tracé_439" data-name="Tracé 439" d="M-739.064-4904.194v-4.036H-743.1v4.036h-4.036v4.036h4.036v4.036h4.036v-4.036h4.036v-4.036Z" transform="translate(-126.965 -760.265)" fill="#ccc" opacity="0.4"/>
    <path id="Tracé_440" data-name="Tracé 440" d="M-786.95-4856.308v-4.036h-4.036v4.036h-4.036v4.036h4.036v4.036h4.036v-4.036h4.036v-4.036Z" transform="translate(-95.224 -792.006)" fill="#ccc" opacity="0.2"/>
    <path id="Tracé_441" data-name="Tracé 441" d="M-739.064-4856.308v-4.036H-743.1v4.036h-4.036v4.036h4.036v4.036h4.036v-4.036h4.036v-4.036Z" transform="translate(-126.965 -792.006)" fill="#ccc" opacity="0.2"/>
    <path id="Tracé_442" data-name="Tracé 442" d="M-691.178-4904.194v-4.036h-4.036v4.036h-4.036v4.036h4.036v4.036h4.036v-4.036h4.036v-4.036Z" transform="translate(-158.706 -760.265)" fill="#ccc" opacity="0.4"/>
    <path id="Tracé_443" data-name="Tracé 443" d="M-643.293-4904.194v-4.036h-4.036v4.036h-4.036v4.036h4.036v4.036h4.036v-4.036h4.036v-4.036Z" transform="translate(-190.447 -760.265)" fill="#ccc" opacity="0.4"/>
    <path id="Tracé_444" data-name="Tracé 444" d="M-691.178-4856.308v-4.036h-4.036v4.036h-4.036v4.036h4.036v4.036h4.036v-4.036h4.036v-4.036Z" transform="translate(-158.706 -792.006)" fill="#ccc" opacity="0.2"/>
    <path id="Tracé_445" data-name="Tracé 445" d="M-643.293-4856.308v-4.036h-4.036v4.036h-4.036v4.036h4.036v4.036h4.036v-4.036h4.036v-4.036Z" transform="translate(-190.447 -792.006)" fill="#ccc" opacity="0.4"/>
    <path id="Tracé_446" data-name="Tracé 446" d="M-595.407-5191.508v-4.036h-4.036v4.036h-4.036v4.036h4.036v4.036h4.036v-4.036h4.036v-4.036Z" transform="translate(-222.188 -569.818)" fill="#ccc"/>
    <path id="Tracé_447" data-name="Tracé 447" d="M-547.521-5191.508v-4.036h-4.036v4.036h-4.036v4.036h4.036v4.036h4.036v-4.036h4.036v-4.036Z" transform="translate(-253.929 -569.818)" fill="#ccc"/>
    <path id="Tracé_448" data-name="Tracé 448" d="M-499.635-5191.508v-4.036h-4.036v4.036h-4.036v4.036h4.036v4.036h4.036v-4.036h4.036v-4.036Z" transform="translate(-285.671 -569.818)" fill="#ccc"/>
    <path id="Tracé_449" data-name="Tracé 449" d="M-451.75-5191.508v-4.036h-4.036v4.036h-4.036v4.036h4.036v4.036h4.036v-4.036h4.036v-4.036Z" transform="translate(-317.412 -569.818)" fill="#ccc"/>
    <path id="Tracé_450" data-name="Tracé 450" d="M-403.864-5191.508v-4.036H-407.9v4.036h-4.036v4.036h4.036v4.036h4.036v-4.036h4.036v-4.036Z" transform="translate(-349.153 -569.818)" fill="#ccc"/>
    <path id="Tracé_451" data-name="Tracé 451" d="M-595.407-5143.623v-4.036h-4.036v4.036h-4.036v4.036h4.036v4.036h4.036v-4.036h4.036v-4.036Z" transform="translate(-222.188 -601.559)" fill="#ccc"/>
    <path id="Tracé_452" data-name="Tracé 452" d="M-547.521-5143.623v-4.036h-4.036v4.036h-4.036v4.036h4.036v4.036h4.036v-4.036h4.036v-4.036Z" transform="translate(-253.929 -601.559)" fill="#ccc"/>
    <path id="Tracé_453" data-name="Tracé 453" d="M-499.635-5143.623v-4.036h-4.036v4.036h-4.036v4.036h4.036v4.036h4.036v-4.036h4.036v-4.036Z" transform="translate(-285.671 -601.559)" fill="#ccc"/>
    <path id="Tracé_454" data-name="Tracé 454" d="M-451.75-5143.623v-4.036h-4.036v4.036h-4.036v4.036h4.036v4.036h4.036v-4.036h4.036v-4.036Z" transform="translate(-317.412 -601.559)" fill="#ccc"/>
    <path id="Tracé_455" data-name="Tracé 455" d="M-403.864-5143.623v-4.036H-407.9v4.036h-4.036v4.036h4.036v4.036h4.036v-4.036h4.036v-4.036Z" transform="translate(-349.153 -601.559)" fill="#ccc"/>
    <path id="Tracé_456" data-name="Tracé 456" d="M-595.407-5095.737v-4.036h-4.036v4.036h-4.036v4.036h4.036v4.036h4.036v-4.036h4.036v-4.036Z" transform="translate(-222.188 -633.3)" fill="#ccc"/>
    <path id="Tracé_457" data-name="Tracé 457" d="M-547.521-5095.737v-4.036h-4.036v4.036h-4.036v4.036h4.036v4.036h4.036v-4.036h4.036v-4.036Z" transform="translate(-253.929 -633.3)" fill="#ccc"/>
    <path id="Tracé_458" data-name="Tracé 458" d="M-499.635-5095.737v-4.036h-4.036v4.036h-4.036v4.036h4.036v4.036h4.036v-4.036h4.036v-4.036Z" transform="translate(-285.671 -633.3)" fill="#ccc"/>
    <path id="Tracé_459" data-name="Tracé 459" d="M-451.75-5095.737v-4.036h-4.036v4.036h-4.036v4.036h4.036v4.036h4.036v-4.036h4.036v-4.036Z" transform="translate(-317.412 -633.3)" fill="#ccc"/>
    <path id="Tracé_460" data-name="Tracé 460" d="M-403.864-5095.737v-4.036H-407.9v4.036h-4.036v4.036h4.036v4.036h4.036v-4.036h4.036v-4.036Z" transform="translate(-349.153 -633.3)" fill="#ccc"/>
    <path id="Tracé_461" data-name="Tracé 461" d="M-595.407-5047.851v-4.037h-4.036v4.037h-4.036v4.036h4.036v4.037h4.036v-4.037h4.036v-4.036Z" transform="translate(-222.188 -665.041)" fill="#ccc" opacity="0.8"/>
    <path id="Tracé_462" data-name="Tracé 462" d="M-547.521-5047.851v-4.037h-4.036v4.037h-4.036v4.036h4.036v4.037h4.036v-4.037h4.036v-4.036Z" transform="translate(-253.929 -665.041)" fill="#ccc"/>
    <path id="Tracé_463" data-name="Tracé 463" d="M-499.635-5047.851v-4.037h-4.036v4.037h-4.036v4.036h4.036v4.037h4.036v-4.037h4.036v-4.036Z" transform="translate(-285.671 -665.041)" fill="#ccc"/>
    <path id="Tracé_464" data-name="Tracé 464" d="M-451.75-5047.851v-4.037h-4.036v4.037h-4.036v4.036h4.036v4.037h4.036v-4.037h4.036v-4.036Z" transform="translate(-317.412 -665.041)" fill="#ccc"/>
    <path id="Tracé_465" data-name="Tracé 465" d="M-403.864-5047.851v-4.037H-407.9v4.037h-4.036v4.036h4.036v4.037h4.036v-4.037h4.036v-4.036Z" transform="translate(-349.153 -665.041)" fill="#ccc"/>
    <path id="Tracé_466" data-name="Tracé 466" d="M-595.407-4999.965V-5004h-4.036v4.037h-4.036v4.036h4.036v4.037h4.036v-4.037h4.036v-4.036Z" transform="translate(-222.188 -696.783)" fill="#ccc" opacity="0.8"/>
    <path id="Tracé_467" data-name="Tracé 467" d="M-547.521-4999.965V-5004h-4.036v4.037h-4.036v4.036h4.036v4.037h4.036v-4.037h4.036v-4.036Z" transform="translate(-253.929 -696.783)" fill="#ccc" opacity="0.8"/>
    <path id="Tracé_468" data-name="Tracé 468" d="M-499.635-4999.965V-5004h-4.036v4.037h-4.036v4.036h4.036v4.037h4.036v-4.037h4.036v-4.036Z" transform="translate(-285.671 -696.783)" fill="#ccc" opacity="0.8"/>
    <path id="Tracé_469" data-name="Tracé 469" d="M-451.75-4999.965V-5004h-4.036v4.037h-4.036v4.036h4.036v4.037h4.036v-4.037h4.036v-4.036Z" transform="translate(-317.412 -696.783)" fill="#ccc" opacity="0.8"/>
    <path id="Tracé_470" data-name="Tracé 470" d="M-403.864-4999.965V-5004H-407.9v4.037h-4.036v4.036h4.036v4.037h4.036v-4.037h4.036v-4.036Z" transform="translate(-349.153 -696.783)" fill="#ccc" opacity="0.8"/>
    <path id="Tracé_471" data-name="Tracé 471" d="M-595.407-4952.08v-4.036h-4.036v4.036h-4.036v4.036h4.036v4.036h4.036v-4.036h4.036v-4.036Z" transform="translate(-222.188 -728.524)" fill="#ccc" opacity="0.6"/>
    <path id="Tracé_472" data-name="Tracé 472" d="M-547.521-4952.08v-4.036h-4.036v4.036h-4.036v4.036h4.036v4.036h4.036v-4.036h4.036v-4.036Z" transform="translate(-253.929 -728.524)" fill="#ccc" opacity="0.6"/>
    <path id="Tracé_473" data-name="Tracé 473" d="M-499.635-4952.08v-4.036h-4.036v4.036h-4.036v4.036h4.036v4.036h4.036v-4.036h4.036v-4.036Z" transform="translate(-285.671 -728.524)" fill="#ccc" opacity="0.8"/>
    <path id="Tracé_474" data-name="Tracé 474" d="M-451.75-4952.08v-4.036h-4.036v4.036h-4.036v4.036h4.036v4.036h4.036v-4.036h4.036v-4.036Z" transform="translate(-317.412 -728.524)" fill="#ccc" opacity="0.8"/>
    <path id="Tracé_475" data-name="Tracé 475" d="M-403.864-4952.08v-4.036H-407.9v4.036h-4.036v4.036h4.036v4.036h4.036v-4.036h4.036v-4.036Z" transform="translate(-349.153 -728.524)" fill="#ccc" opacity="0.6"/>
    <path id="Tracé_476" data-name="Tracé 476" d="M-355.978-5191.508v-4.036h-4.036v4.036h-4.036v4.036h4.036v4.036h4.036v-4.036h4.036v-4.036Z" transform="translate(-380.894 -569.818)" fill="#ccc"/>
    <path id="Tracé_477" data-name="Tracé 477" d="M-308.092-5191.508v-4.036h-4.036v4.036h-4.036v4.036h4.036v4.036h4.036v-4.036h4.036v-4.036Z" transform="translate(-412.635 -569.818)" fill="#ccc" opacity="0.8"/>
    <path id="Tracé_478" data-name="Tracé 478" d="M-355.978-5143.623v-4.036h-4.036v4.036h-4.036v4.036h4.036v4.036h4.036v-4.036h4.036v-4.036Z" transform="translate(-380.894 -601.559)" fill="#ccc"/>
    <path id="Tracé_479" data-name="Tracé 479" d="M-308.092-5143.623v-4.036h-4.036v4.036h-4.036v4.036h4.036v4.036h4.036v-4.036h4.036v-4.036Z" transform="translate(-412.635 -601.559)" fill="#ccc" opacity="0.8"/>
    <path id="Tracé_480" data-name="Tracé 480" d="M-355.978-5095.737v-4.036h-4.036v4.036h-4.036v4.036h4.036v4.036h4.036v-4.036h4.036v-4.036Z" transform="translate(-380.894 -633.3)" fill="#ccc"/>
    <path id="Tracé_481" data-name="Tracé 481" d="M-308.092-5095.737v-4.036h-4.036v4.036h-4.036v4.036h4.036v4.036h4.036v-4.036h4.036v-4.036Z" transform="translate(-412.635 -633.3)" fill="#ccc" opacity="0.8"/>
    <path id="Tracé_482" data-name="Tracé 482" d="M-355.978-5047.851v-4.037h-4.036v4.037h-4.036v4.036h4.036v4.037h4.036v-4.037h4.036v-4.036Z" transform="translate(-380.894 -665.041)" fill="#ccc" opacity="0.8"/>
    <path id="Tracé_483" data-name="Tracé 483" d="M-308.092-5047.851v-4.037h-4.036v4.037h-4.036v4.036h4.036v4.037h4.036v-4.037h4.036v-4.036Z" transform="translate(-412.635 -665.041)" fill="#ccc" opacity="0.8"/>
    <path id="Tracé_484" data-name="Tracé 484" d="M-355.978-4999.965V-5004h-4.036v4.037h-4.036v4.036h4.036v4.037h4.036v-4.037h4.036v-4.036Z" transform="translate(-380.894 -696.783)" fill="#ccc" opacity="0.8"/>
    <path id="Tracé_485" data-name="Tracé 485" d="M-308.092-4999.965V-5004h-4.036v4.037h-4.036v4.036h4.036v4.037h4.036v-4.037h4.036v-4.036Z" transform="translate(-412.635 -696.783)" fill="#ccc" opacity="0.6"/>
    <path id="Tracé_486" data-name="Tracé 486" d="M-355.978-4952.08v-4.036h-4.036v4.036h-4.036v4.036h4.036v4.036h4.036v-4.036h4.036v-4.036Z" transform="translate(-380.894 -728.524)" fill="#ccc" opacity="0.6"/>
    <path id="Tracé_487" data-name="Tracé 487" d="M-308.092-4952.08v-4.036h-4.036v4.036h-4.036v4.036h4.036v4.036h4.036v-4.036h4.036v-4.036Z" transform="translate(-412.635 -728.524)" fill="#ccc" opacity="0.4"/>
    <path id="Tracé_488" data-name="Tracé 488" d="M-595.407-4904.194v-4.036h-4.036v4.036h-4.036v4.036h4.036v4.036h4.036v-4.036h4.036v-4.036Z" transform="translate(-222.188 -760.265)" fill="#ccc" opacity="0.4"/>
    <path id="Tracé_489" data-name="Tracé 489" d="M-547.521-4904.194v-4.036h-4.036v4.036h-4.036v4.036h4.036v4.036h4.036v-4.036h4.036v-4.036Z" transform="translate(-253.929 -760.265)" fill="#ccc" opacity="0.6"/>
    <path id="Tracé_490" data-name="Tracé 490" d="M-499.635-4904.194v-4.036h-4.036v4.036h-4.036v4.036h4.036v4.036h4.036v-4.036h4.036v-4.036Z" transform="translate(-285.671 -760.265)" fill="#ccc" opacity="0.6"/>
    <path id="Tracé_491" data-name="Tracé 491" d="M-451.75-4904.194v-4.036h-4.036v4.036h-4.036v4.036h4.036v4.036h4.036v-4.036h4.036v-4.036Z" transform="translate(-317.412 -760.265)" fill="#ccc" opacity="0.6"/>
    <path id="Tracé_492" data-name="Tracé 492" d="M-403.864-4904.194v-4.036H-407.9v4.036h-4.036v4.036h4.036v4.036h4.036v-4.036h4.036v-4.036Z" transform="translate(-349.153 -760.265)" fill="#ccc" opacity="0.4"/>
    <path id="Tracé_493" data-name="Tracé 493" d="M-595.407-4856.308v-4.036h-4.036v4.036h-4.036v4.036h4.036v4.036h4.036v-4.036h4.036v-4.036Z" transform="translate(-222.188 -792.006)" fill="#ccc" opacity="0.4"/>
    <path id="Tracé_494" data-name="Tracé 494" d="M-547.521-4856.308v-4.036h-4.036v4.036h-4.036v4.036h4.036v4.036h4.036v-4.036h4.036v-4.036Z" transform="translate(-253.929 -792.006)" fill="#ccc" opacity="0.4"/>
    <path id="Tracé_495" data-name="Tracé 495" d="M-499.635-4856.308v-4.036h-4.036v4.036h-4.036v4.036h4.036v4.036h4.036v-4.036h4.036v-4.036Z" transform="translate(-285.671 -792.006)" fill="#ccc" opacity="0.4"/>
    <path id="Tracé_496" data-name="Tracé 496" d="M-451.75-4856.308v-4.036h-4.036v4.036h-4.036v4.036h4.036v4.036h4.036v-4.036h4.036v-4.036Z" transform="translate(-317.412 -792.006)" fill="#ccc" opacity="0.4"/>
    <path id="Tracé_497" data-name="Tracé 497" d="M-403.864-4856.308v-4.036H-407.9v4.036h-4.036v4.036h4.036v4.036h4.036v-4.036h4.036v-4.036Z" transform="translate(-349.153 -792.006)" fill="#ccc" opacity="0.4"/>
    <path id="Tracé_498" data-name="Tracé 498" d="M-595.407-4808.422v-4.036h-4.036v4.036h-4.036v4.036h4.036v4.036h4.036v-4.036h4.036v-4.036Z" transform="translate(-222.188 -823.747)" fill="#ccc" opacity="0.2"/>
    <path id="Tracé_499" data-name="Tracé 499" d="M-547.521-4808.422v-4.036h-4.036v4.036h-4.036v4.036h4.036v4.036h4.036v-4.036h4.036v-4.036Z" transform="translate(-253.929 -823.747)" fill="#ccc" opacity="0.2"/>
    <path id="Tracé_500" data-name="Tracé 500" d="M-499.635-4808.422v-4.036h-4.036v4.036h-4.036v4.036h4.036v4.036h4.036v-4.036h4.036v-4.036Z" transform="translate(-285.671 -823.747)" fill="#ccc" opacity="0.2"/>
    <path id="Tracé_501" data-name="Tracé 501" d="M-451.75-4808.422v-4.036h-4.036v4.036h-4.036v4.036h4.036v4.036h4.036v-4.036h4.036v-4.036Z" transform="translate(-317.412 -823.747)" fill="#ccc" opacity="0.4"/>
    <path id="Tracé_502" data-name="Tracé 502" d="M-403.864-4808.422v-4.036H-407.9v4.036h-4.036v4.036h4.036v4.036h4.036v-4.036h4.036v-4.036Z" transform="translate(-349.153 -823.747)" fill="#ccc" opacity="0.2"/>
    <path id="Tracé_503" data-name="Tracé 503" d="M-355.978-4904.194v-4.036h-4.036v4.036h-4.036v4.036h4.036v4.036h4.036v-4.036h4.036v-4.036Z" transform="translate(-380.894 -760.265)" fill="#ccc" opacity="0.4"/>
    <path id="Tracé_504" data-name="Tracé 504" d="M-308.092-4904.194v-4.036h-4.036v4.036h-4.036v4.036h4.036v4.036h4.036v-4.036h4.036v-4.036Z" transform="translate(-412.635 -760.265)" fill="#ccc" opacity="0.4"/>
    <path id="Tracé_505" data-name="Tracé 505" d="M-355.978-4856.308v-4.036h-4.036v4.036h-4.036v4.036h4.036v4.036h4.036v-4.036h4.036v-4.036Z" transform="translate(-380.894 -792.006)" fill="#ccc" opacity="0.4"/>
    <path id="Tracé_506" data-name="Tracé 506" d="M-308.092-4856.308v-4.036h-4.036v4.036h-4.036v4.036h4.036v4.036h4.036v-4.036h4.036v-4.036Z" transform="translate(-412.635 -792.006)" fill="#ccc" opacity="0.4"/>
    <path id="Tracé_507" data-name="Tracé 507" d="M-355.978-4808.422v-4.036h-4.036v4.036h-4.036v4.036h4.036v4.036h4.036v-4.036h4.036v-4.036Z" transform="translate(-380.894 -823.747)" fill="#ccc" opacity="0.2"/>
    <path id="Tracé_508" data-name="Tracé 508" d="M-308.092-4808.422v-4.036h-4.036v4.036h-4.036v4.036h4.036v4.036h4.036v-4.036h4.036v-4.036Z" transform="translate(-412.635 -823.747)" fill="#ccc" opacity="0.2"/>
    <path id="Tracé_509" data-name="Tracé 509" d="M-260.207-5191.508v-4.036h-4.036v4.036h-4.036v4.036h4.036v4.036h4.036v-4.036h4.036v-4.036Z" transform="translate(-444.376 -569.818)" fill="#ccc" opacity="0.8"/>
    <path id="Tracé_510" data-name="Tracé 510" d="M-212.321-5191.508v-4.036h-4.036v4.036h-4.036v4.036h4.036v4.036h4.036v-4.036h4.036v-4.036Z" transform="translate(-476.118 -569.818)" fill="#ccc" opacity="0.6"/>
    <path id="Tracé_511" data-name="Tracé 511" d="M-164.435-5191.508v-4.036h-4.036v4.036h-4.036v4.036h4.036v4.036h4.036v-4.036h4.036v-4.036Z" transform="translate(-507.859 -569.818)" fill="#ccc" opacity="0.6"/>
    <path id="Tracé_512" data-name="Tracé 512" d="M-116.549-5191.508v-4.036h-4.036v4.036h-4.036v4.036h4.036v4.036h4.036v-4.036h4.036v-4.036Z" transform="translate(-539.6 -569.818)" fill="#ccc" opacity="0.4"/>
    <path id="Tracé_513" data-name="Tracé 513" d="M-68.664-5191.508v-4.036H-72.7v4.036h-4.036v4.036H-72.7v4.036h4.036v-4.036h4.036v-4.036Z" transform="translate(-571.341 -569.818)" fill="#ccc" opacity="0.4"/>
    <path id="Tracé_514" data-name="Tracé 514" d="M-260.207-5143.623v-4.036h-4.036v4.036h-4.036v4.036h4.036v4.036h4.036v-4.036h4.036v-4.036Z" transform="translate(-444.376 -601.559)" fill="#ccc" opacity="0.8"/>
    <path id="Tracé_515" data-name="Tracé 515" d="M-212.321-5143.623v-4.036h-4.036v4.036h-4.036v4.036h4.036v4.036h4.036v-4.036h4.036v-4.036Z" transform="translate(-476.118 -601.559)" fill="#ccc" opacity="0.6"/>
    <path id="Tracé_516" data-name="Tracé 516" d="M-164.435-5143.623v-4.036h-4.036v4.036h-4.036v4.036h4.036v4.036h4.036v-4.036h4.036v-4.036Z" transform="translate(-507.859 -601.559)" fill="#ccc" opacity="0.6"/>
    <path id="Tracé_517" data-name="Tracé 517" d="M-116.549-5143.623v-4.036h-4.036v4.036h-4.036v4.036h4.036v4.036h4.036v-4.036h4.036v-4.036Z" transform="translate(-539.6 -601.559)" fill="#ccc" opacity="0.4"/>
    <path id="Tracé_518" data-name="Tracé 518" d="M-68.664-5143.623v-4.036H-72.7v4.036h-4.036v4.036H-72.7v4.036h4.036v-4.036h4.036v-4.036Z" transform="translate(-571.341 -601.559)" fill="#ccc" opacity="0.2"/>
    <path id="Tracé_519" data-name="Tracé 519" d="M-260.207-5095.737v-4.036h-4.036v4.036h-4.036v4.036h4.036v4.036h4.036v-4.036h4.036v-4.036Z" transform="translate(-444.376 -633.3)" fill="#ccc" opacity="0.8"/>
    <path id="Tracé_520" data-name="Tracé 520" d="M-212.321-5095.737v-4.036h-4.036v4.036h-4.036v4.036h4.036v4.036h4.036v-4.036h4.036v-4.036Z" transform="translate(-476.118 -633.3)" fill="#ccc" opacity="0.6"/>
    <path id="Tracé_521" data-name="Tracé 521" d="M-164.435-5095.737v-4.036h-4.036v4.036h-4.036v4.036h4.036v4.036h4.036v-4.036h4.036v-4.036Z" transform="translate(-507.859 -633.3)" fill="#ccc" opacity="0.6"/>
    <path id="Tracé_522" data-name="Tracé 522" d="M-116.549-5095.737v-4.036h-4.036v4.036h-4.036v4.036h4.036v4.036h4.036v-4.036h4.036v-4.036Z" transform="translate(-539.6 -633.3)" fill="#ccc" opacity="0.4"/>
    <path id="Tracé_523" data-name="Tracé 523" d="M-68.664-5095.737v-4.036H-72.7v4.036h-4.036v4.036H-72.7v4.036h4.036v-4.036h4.036v-4.036Z" transform="translate(-571.341 -633.3)" fill="#ccc" opacity="0.2"/>
    <path id="Tracé_524" data-name="Tracé 524" d="M-260.207-5047.851v-4.037h-4.036v4.037h-4.036v4.036h4.036v4.037h4.036v-4.037h4.036v-4.036Z" transform="translate(-444.376 -665.041)" fill="#ccc" opacity="0.6"/>
    <path id="Tracé_525" data-name="Tracé 525" d="M-212.321-5047.851v-4.037h-4.036v4.037h-4.036v4.036h4.036v4.037h4.036v-4.037h4.036v-4.036Z" transform="translate(-476.118 -665.041)" fill="#ccc" opacity="0.6"/>
    <path id="Tracé_526" data-name="Tracé 526" d="M-164.435-5047.851v-4.037h-4.036v4.037h-4.036v4.036h4.036v4.037h4.036v-4.037h4.036v-4.036Z" transform="translate(-507.859 -665.041)" fill="#ccc" opacity="0.6"/>
    <path id="Tracé_527" data-name="Tracé 527" d="M-116.549-5047.851v-4.037h-4.036v4.037h-4.036v4.036h4.036v4.037h4.036v-4.037h4.036v-4.036Z" transform="translate(-539.6 -665.041)" fill="#ccc" opacity="0.4"/>
    <path id="Tracé_528" data-name="Tracé 528" d="M-68.664-5047.851v-4.037H-72.7v4.037h-4.036v4.036H-72.7v4.037h4.036v-4.037h4.036v-4.036Z" transform="translate(-571.341 -665.041)" fill="#ccc" opacity="0.2"/>
    <path id="Tracé_529" data-name="Tracé 529" d="M-260.207-4999.965V-5004h-4.036v4.037h-4.036v4.036h4.036v4.037h4.036v-4.037h4.036v-4.036Z" transform="translate(-444.376 -696.783)" fill="#ccc" opacity="0.6"/>
    <path id="Tracé_530" data-name="Tracé 530" d="M-212.321-4999.965V-5004h-4.036v4.037h-4.036v4.036h4.036v4.037h4.036v-4.037h4.036v-4.036Z" transform="translate(-476.118 -696.783)" fill="#ccc" opacity="0.6"/>
    <path id="Tracé_531" data-name="Tracé 531" d="M-164.435-4999.965V-5004h-4.036v4.037h-4.036v4.036h4.036v4.037h4.036v-4.037h4.036v-4.036Z" transform="translate(-507.859 -696.783)" fill="#ccc" opacity="0.4"/>
    <path id="Tracé_532" data-name="Tracé 532" d="M-116.549-4999.965V-5004h-4.036v4.037h-4.036v4.036h4.036v4.037h4.036v-4.037h4.036v-4.036Z" transform="translate(-539.6 -696.783)" fill="#ccc" opacity="0.2"/>
    <path id="Tracé_533" data-name="Tracé 533" d="M-68.664-4999.965V-5004H-72.7v4.037h-4.036v4.036H-72.7v4.037h4.036v-4.037h4.036v-4.036Z" transform="translate(-571.341 -696.783)" fill="#ccc" opacity="0.2"/>
    <path id="Tracé_534" data-name="Tracé 534" d="M-260.207-4952.08v-4.036h-4.036v4.036h-4.036v4.036h4.036v4.036h4.036v-4.036h4.036v-4.036Z" transform="translate(-444.376 -728.524)" fill="#ccc" opacity="0.4"/>
    <path id="Tracé_535" data-name="Tracé 535" d="M-212.321-4952.08v-4.036h-4.036v4.036h-4.036v4.036h4.036v4.036h4.036v-4.036h4.036v-4.036Z" transform="translate(-476.118 -728.524)" fill="#ccc" opacity="0.4"/>
    <path id="Tracé_536" data-name="Tracé 536" d="M-164.435-4952.08v-4.036h-4.036v4.036h-4.036v4.036h4.036v4.036h4.036v-4.036h4.036v-4.036Z" transform="translate(-507.859 -728.524)" fill="#ccc" opacity="0.2"/>
    <path id="Tracé_537" data-name="Tracé 537" d="M-116.549-4952.08v-4.036h-4.036v4.036h-4.036v4.036h4.036v4.036h4.036v-4.036h4.036v-4.036Z" transform="translate(-539.6 -728.524)" fill="#ccc" opacity="0.2"/>
    <path id="Tracé_538" data-name="Tracé 538" d="M-20.778-5191.508v-4.036h-4.036v4.036H-28.85v4.036h4.036v4.036h4.036v-4.036h4.036v-4.036Z" transform="translate(-603.082 -569.818)" fill="#ccc" opacity="0.2"/>
    <path id="Tracé_539" data-name="Tracé 539" d="M-20.778-5143.623v-4.036h-4.036v4.036H-28.85v4.036h4.036v4.036h4.036v-4.036h4.036v-4.036Z" transform="translate(-603.082 -601.559)" fill="#ccc" opacity="0.2"/>
    <path id="Tracé_540" data-name="Tracé 540" d="M-260.207-4904.194v-4.036h-4.036v4.036h-4.036v4.036h4.036v4.036h4.036v-4.036h4.036v-4.036Z" transform="translate(-444.376 -760.265)" fill="#ccc" opacity="0.2"/>
    <path id="Tracé_541" data-name="Tracé 541" d="M-212.321-4904.194v-4.036h-4.036v4.036h-4.036v4.036h4.036v4.036h4.036v-4.036h4.036v-4.036Z" transform="translate(-476.118 -760.265)" fill="#ccc" opacity="0.2"/>
    <path id="Tracé_542" data-name="Tracé 542" d="M-164.435-4904.194v-4.036h-4.036v4.036h-4.036v4.036h4.036v4.036h4.036v-4.036h4.036v-4.036Z" transform="translate(-507.859 -760.265)" fill="#ccc" opacity="0.2"/>
    <path id="Tracé_543" data-name="Tracé 543" d="M-260.207-4856.308v-4.036h-4.036v4.036h-4.036v4.036h4.036v4.036h4.036v-4.036h4.036v-4.036Z" transform="translate(-444.376 -792.006)" fill="#ccc" opacity="0.2"/>
  </g>
</svg>
