<svg xmlns="http://www.w3.org/2000/svg" width="113.842" height="147.572" viewBox="0 0 113.842 147.572">
  <g id="Groupe_21" data-name="Groupe 21" transform="translate(2179.726 6866.949)" opacity="0.2">
    <path id="Tracé_32" data-name="Tracé 32" d="M-2075.521-6862.733v-4.217h-4.216v4.217h-4.217v4.216h4.217v4.217h4.216v-4.217h4.217v-4.216Z" transform="translate(-62.04 0)" fill="#ccc" opacity="0.3"/>
    <path id="Tracé_33" data-name="Tracé 33" d="M-2027.635-6862.733v-4.217h-4.217v4.217h-4.216v4.216h4.216v4.217h4.217v-4.217h4.216v-4.216Z" transform="translate(-93.061 0)" fill="#ccc" opacity="0.6"/>
    <path id="Tracé_34" data-name="Tracé 34" d="M-1979.75-6862.733v-4.217h-4.217v4.217h-4.216v4.216h4.216v4.217h4.217v-4.217h4.216v-4.216Z" transform="translate(-124.081 0)" fill="#ccc" opacity="0.3"/>
    <path id="Tracé_35" data-name="Tracé 35" d="M-2075.521-6814.847v-4.217h-4.216v4.217h-4.217v4.216h4.217v4.217h4.216v-4.217h4.217v-4.216Z" transform="translate(-62.04 -31.02)" fill="#ccc" opacity="0.3"/>
    <path id="Tracé_36" data-name="Tracé 36" d="M-2027.635-6814.847v-4.217h-4.217v4.217h-4.216v4.216h4.216v4.217h4.217v-4.217h4.216v-4.216Z" transform="translate(-93.061 -31.02)" fill="#ccc" opacity="0.6"/>
    <path id="Tracé_37" data-name="Tracé 37" d="M-1979.75-6814.847v-4.217h-4.217v4.217h-4.216v4.216h4.216v4.217h4.217v-4.217h4.216v-4.216Z" transform="translate(-124.081 -31.02)" fill="#ccc" opacity="0.3"/>
    <path id="Tracé_38" data-name="Tracé 38" d="M-2075.521-6766.962v-4.217h-4.216v4.217h-4.217v4.216h4.217v4.216h4.216v-4.216h4.217v-4.216Z" transform="translate(-62.04 -62.04)" fill="#ccc" opacity="0.3"/>
    <path id="Tracé_39" data-name="Tracé 39" d="M-2027.635-6766.962v-4.217h-4.217v4.217h-4.216v4.216h4.216v4.216h4.217v-4.216h4.216v-4.216Z" transform="translate(-93.061 -62.04)" fill="#ccc"/>
    <path id="Tracé_40" data-name="Tracé 40" d="M-1979.75-6766.962v-4.217h-4.217v4.217h-4.216v4.216h4.216v4.216h4.217v-4.216h4.216v-4.216Z" transform="translate(-124.081 -62.04)" fill="#ccc" opacity="0.6"/>
    <path id="Tracé_41" data-name="Tracé 41" d="M-2123.407-6719.076v-4.217h-4.217v4.217h-4.216v4.216h4.216v4.216h4.217v-4.216h4.216v-4.216Z" transform="translate(-31.02 -93.06)" fill="#ccc" opacity="0.3"/>
    <path id="Tracé_42" data-name="Tracé 42" d="M-2075.521-6719.076v-4.217h-4.216v4.217h-4.217v4.216h4.217v4.216h4.216v-4.216h4.217v-4.216Z" transform="translate(-62.04 -93.06)" fill="#ccc" opacity="0.6"/>
    <path id="Tracé_43" data-name="Tracé 43" d="M-2027.635-6719.076v-4.217h-4.217v4.217h-4.216v4.216h4.216v4.216h4.217v-4.216h4.216v-4.216Z" transform="translate(-93.061 -93.06)" fill="#ccc"/>
    <path id="Tracé_44" data-name="Tracé 44" d="M-1979.75-6719.076v-4.217h-4.217v4.217h-4.216v4.216h4.216v4.216h4.217v-4.216h4.216v-4.216Z" transform="translate(-124.081 -93.06)" fill="#ccc" opacity="0.6"/>
    <path id="Tracé_45" data-name="Tracé 45" d="M-2171.293-6671.19v-4.217h-4.216v4.217h-4.216v4.216h4.216v4.216h4.216v-4.216h4.216v-4.216Z" transform="translate(0 -124.081)" fill="#ccc" opacity="0.3"/>
    <path id="Tracé_46" data-name="Tracé 46" d="M-2123.407-6671.19v-4.217h-4.217v4.217h-4.216v4.216h4.216v4.216h4.217v-4.216h4.216v-4.216Z" transform="translate(-31.02 -124.081)" fill="#ccc" opacity="0.6"/>
    <path id="Tracé_47" data-name="Tracé 47" d="M-2075.521-6671.19v-4.217h-4.216v4.217h-4.217v4.216h4.217v4.216h4.216v-4.216h4.217v-4.216Z" transform="translate(-62.04 -124.081)" fill="#ccc" opacity="0.6"/>
    <path id="Tracé_48" data-name="Tracé 48" d="M-2027.635-6671.19v-4.217h-4.217v4.217h-4.216v4.216h4.216v4.216h4.217v-4.216h4.216v-4.216Z" transform="translate(-93.061 -124.081)" fill="#ccc"/>
    <path id="Tracé_49" data-name="Tracé 49" d="M-1979.75-6671.19v-4.217h-4.217v4.217h-4.216v4.216h4.216v4.216h4.217v-4.216h4.216v-4.216Z" transform="translate(-124.081 -124.081)" fill="#ccc"/>
    <path id="Tracé_50" data-name="Tracé 50" d="M-2171.293-6623.3v-4.217h-4.216v4.217h-4.216v4.216h4.216v4.216h4.216v-4.216h4.216v-4.216Z" transform="translate(0 -155.102)" fill="#ccc" opacity="0.3"/>
    <path id="Tracé_51" data-name="Tracé 51" d="M-2123.407-6623.3v-4.217h-4.217v4.217h-4.216v4.216h4.216v4.216h4.217v-4.216h4.216v-4.216Z" transform="translate(-31.02 -155.102)" fill="#ccc" opacity="0.6"/>
    <path id="Tracé_52" data-name="Tracé 52" d="M-2075.521-6623.3v-4.217h-4.216v4.217h-4.217v4.216h4.217v4.216h4.216v-4.216h4.217v-4.216Z" transform="translate(-62.04 -155.102)" fill="#ccc"/>
    <path id="Tracé_53" data-name="Tracé 53" d="M-2027.635-6623.3v-4.217h-4.217v4.217h-4.216v4.216h4.216v4.216h4.217v-4.216h4.216v-4.216Z" transform="translate(-93.061 -155.102)" fill="#ccc"/>
    <path id="Tracé_54" data-name="Tracé 54" d="M-1979.75-6623.3v-4.217h-4.217v4.217h-4.216v4.216h4.216v4.216h4.217v-4.216h4.216v-4.216Z" transform="translate(-124.081 -155.102)" fill="#ccc"/>
    <path id="Tracé_55" data-name="Tracé 55" d="M-1931.864-6814.847v-4.217h-4.217v4.217h-4.216v4.216h4.216v4.217h4.217v-4.217h4.216v-4.216Z" transform="translate(-155.101 -31.02)" fill="#ccc" opacity="0.3"/>
    <path id="Tracé_56" data-name="Tracé 56" d="M-1931.864-6766.962v-4.217h-4.217v4.217h-4.216v4.216h4.216v4.216h4.217v-4.216h4.216v-4.216Z" transform="translate(-155.101 -62.04)" fill="#ccc" opacity="0.3"/>
    <path id="Tracé_57" data-name="Tracé 57" d="M-1931.864-6719.076v-4.217h-4.217v4.217h-4.216v4.216h4.216v4.216h4.217v-4.216h4.216v-4.216Z" transform="translate(-155.101 -93.06)" fill="#ccc" opacity="0.6"/>
    <path id="Tracé_58" data-name="Tracé 58" d="M-1883.978-6719.076v-4.217h-4.216v4.217h-4.217v4.216h4.217v4.216h4.216v-4.216h4.216v-4.216Z" transform="translate(-186.122 -93.06)" fill="#ccc" opacity="0.6"/>
    <path id="Tracé_59" data-name="Tracé 59" d="M-1931.864-6671.19v-4.217h-4.217v4.217h-4.216v4.216h4.216v4.216h4.217v-4.216h4.216v-4.216Z" transform="translate(-155.101 -124.081)" fill="#ccc" opacity="0.6"/>
    <path id="Tracé_60" data-name="Tracé 60" d="M-1883.978-6671.19v-4.217h-4.216v4.217h-4.217v4.216h4.217v4.216h4.216v-4.216h4.216v-4.216Z" transform="translate(-186.122 -124.081)" fill="#ccc" opacity="0.6"/>
    <path id="Tracé_61" data-name="Tracé 61" d="M-1931.864-6623.3v-4.217h-4.217v4.217h-4.216v4.216h4.216v4.216h4.217v-4.216h4.216v-4.216Z" transform="translate(-155.101 -155.102)" fill="#ccc"/>
    <path id="Tracé_62" data-name="Tracé 62" d="M-1883.978-6623.3v-4.217h-4.216v4.217h-4.217v4.216h4.217v4.216h4.216v-4.216h4.216v-4.216Z" transform="translate(-186.122 -155.102)" fill="#ccc" opacity="0.6"/>
    <path id="Tracé_63" data-name="Tracé 63" d="M-2123.407-6575.419v-4.217h-4.217v4.217h-4.216v4.216h4.216v4.216h4.217v-4.216h4.216v-4.216Z" transform="translate(-31.02 -186.121)" fill="#ccc" opacity="0.3"/>
    <path id="Tracé_64" data-name="Tracé 64" d="M-2075.521-6575.419v-4.217h-4.216v4.217h-4.217v4.216h4.217v4.216h4.216v-4.216h4.217v-4.216Z" transform="translate(-62.04 -186.121)" fill="#ccc" opacity="0.3"/>
    <path id="Tracé_65" data-name="Tracé 65" d="M-2027.635-6575.419v-4.217h-4.217v4.217h-4.216v4.216h4.216v4.216h4.217v-4.216h4.216v-4.216Z" transform="translate(-93.061 -186.121)" fill="#ccc"/>
    <path id="Tracé_66" data-name="Tracé 66" d="M-1979.75-6575.419v-4.217h-4.217v4.217h-4.216v4.216h4.216v4.216h4.217v-4.216h4.216v-4.216Z" transform="translate(-124.081 -186.121)" fill="#ccc"/>
    <path id="Tracé_67" data-name="Tracé 67" d="M-2075.521-6527.534v-4.217h-4.216v4.217h-4.217v4.217h4.217v4.216h4.216v-4.216h4.217v-4.217Z" transform="translate(-62.04 -217.141)" fill="#ccc" opacity="0.3"/>
    <path id="Tracé_68" data-name="Tracé 68" d="M-2027.635-6527.534v-4.217h-4.217v4.217h-4.216v4.217h4.216v4.216h4.217v-4.216h4.216v-4.217Z" transform="translate(-93.061 -217.141)" fill="#ccc" opacity="0.6"/>
    <path id="Tracé_69" data-name="Tracé 69" d="M-1979.75-6527.534v-4.217h-4.217v4.217h-4.216v4.217h4.216v4.216h4.217v-4.216h4.216v-4.217Z" transform="translate(-124.081 -217.141)" fill="#ccc" opacity="0.3"/>
    <path id="Tracé_70" data-name="Tracé 70" d="M-2075.521-6479.647v-4.216h-4.216v4.216h-4.217v4.216h4.217v4.216h4.216v-4.216h4.217v-4.216Z" transform="translate(-62.04 -248.162)" fill="#ccc" opacity="0.3"/>
    <path id="Tracé_71" data-name="Tracé 71" d="M-2027.635-6479.647v-4.216h-4.217v4.216h-4.216v4.216h4.216v4.216h4.217v-4.216h4.216v-4.216Z" transform="translate(-93.061 -248.162)" fill="#ccc" opacity="0.6"/>
    <path id="Tracé_72" data-name="Tracé 72" d="M-1979.75-6479.647v-4.216h-4.217v4.216h-4.216v4.216h4.216v4.216h4.217v-4.216h4.216v-4.216Z" transform="translate(-124.081 -248.162)" fill="#ccc" opacity="0.3"/>
    <path id="Tracé_73" data-name="Tracé 73" d="M-1931.864-6575.419v-4.217h-4.217v4.217h-4.216v4.216h4.216v4.216h4.217v-4.216h4.216v-4.216Z" transform="translate(-155.101 -186.121)" fill="#ccc" opacity="0.3"/>
    <path id="Tracé_74" data-name="Tracé 74" d="M-1883.978-6575.419v-4.217h-4.216v4.217h-4.217v4.216h4.217v4.216h4.216v-4.216h4.216v-4.216Z" transform="translate(-186.122 -186.121)" fill="#ccc" opacity="0.3"/>
  </g>
</svg>
